<?xml version="1.0" encoding="UTF-8" standalone="no"?>
<svg
   xmlns:dc="http://purl.org/dc/elements/1.1/"
   xmlns:cc="http://creativecommons.org/ns#"
   xmlns:rdf="http://www.w3.org/1999/02/22-rdf-syntax-ns#"
   xmlns:svg="http://www.w3.org/2000/svg"
   xmlns="http://www.w3.org/2000/svg"
   xmlns:sodipodi="http://sodipodi.sourceforge.net/DTD/sodipodi-0.dtd"
   xmlns:inkscape="http://www.inkscape.org/namespaces/inkscape"
   class="svg-icon"
   style="overflow:hidden;fill:currentColor"
   viewBox="0 0 32 32"
   version="1.1"
   id="svg915"
   sodipodi:docname="account_purpose_logo_EXPENSES.svg"
   width="32"
   height="32"
   inkscape:version="1.0 (4035a4fb49, 2020-05-01)">
  <metadata
     id="metadata921">
    <rdf:RDF>
      <cc:Work
         rdf:about="">
        <dc:format>image/svg+xml</dc:format>
        <dc:type
           rdf:resource="http://purl.org/dc/dcmitype/StillImage" />
        <dc:title></dc:title>
      </cc:Work>
    </rdf:RDF>
  </metadata>
  <defs
     id="defs919" />
  <sodipodi:namedview
     inkscape:document-rotation="0"
     pagecolor="#ffffff"
     bordercolor="#666666"
     borderopacity="1"
     objecttolerance="10"
     gridtolerance="10"
     guidetolerance="10"
     inkscape:pageopacity="0"
     inkscape:pageshadow="2"
     inkscape:window-width="1920"
     inkscape:window-height="1001"
     id="namedview917"
     showgrid="false"
     fit-margin-top="0"
     fit-margin-left="0"
     fit-margin-right="0"
     fit-margin-bottom="0"
     inkscape:zoom="17.699767"
     inkscape:cx="23.932333"
     inkscape:cy="17.218426"
     inkscape:window-x="-9"
     inkscape:window-y="-9"
     inkscape:window-maximized="1"
     inkscape:current-layer="svg915" />
  <path
     style="stroke-width:0.0340909"
     d="M 26.181819,4.3636365 H 0 V 21.818182 H 26.181819 V 4.3636365 m -13.09091,4.3636364 a 4.3636364,4.3636364 0 0 0 -4.3636363,4.3636361 4.3636364,4.3636364 0 0 0 4.3636363,4.363637 4.3636364,4.3636364 0 0 0 4.363636,-4.363637 4.3636364,4.3636364 0 0 0 -4.363636,-4.3636361 m 7.272727,-1.4545456 a 2.9090909,2.9090909 0 0 0 2.909091,2.9090917 V 16 a 2.9090909,2.9090909 0 0 0 -2.909091,2.909092 H 5.8181816 A 2.9090909,2.9090909 0 0 0 2.9090909,16 V 10.181819 A 2.9090909,2.9090909 0 0 0 5.8181816,7.2727273 H 20.363636 M 32,10.181819 H 29.090909 V 24.727272 H 5.8181816 v 2.909092 H 32 Z"
     fill=""
     id="path913" />
</svg>
