<?xml version="1.0" encoding="UTF-8" standalone="no"?>
<svg
   xmlns:dc="http://purl.org/dc/elements/1.1/"
   xmlns:cc="http://creativecommons.org/ns#"
   xmlns:rdf="http://www.w3.org/1999/02/22-rdf-syntax-ns#"
   xmlns:svg="http://www.w3.org/2000/svg"
   xmlns="http://www.w3.org/2000/svg"
   xmlns:sodipodi="http://sodipodi.sourceforge.net/DTD/sodipodi-0.dtd"
   xmlns:inkscape="http://www.inkscape.org/namespaces/inkscape"
   height="32"
   width="32"
   inkscape:version="1.0 (4035a4fb49, 2020-05-01)"
   sodipodi:docname="account_purpose_logo_INVERTED_SAVINGS.svg"
   id="svg853"
   version="1.1"
   viewBox="0 0 32 32"
   style="overflow:hidden;fill:currentColor"
   class="svg-icon">
  <metadata
     id="metadata859">
    <rdf:RDF>
      <cc:Work
         rdf:about="">
        <dc:format>image/svg+xml</dc:format>
        <dc:type
           rdf:resource="http://purl.org/dc/dcmitype/StillImage" />
        <dc:title></dc:title>
      </cc:Work>
    </rdf:RDF>
  </metadata>
  <defs
     id="defs857">
    <inkscape:path-effect
       update_on_knot_move="true"
       attempt_force_join="true"
       miter_limit="4"
       offset="1.5"
       unit="px"
       linejoin_type="miter"
       lpeversion="1"
       is_visible="true"
       id="path-effect1497"
       effect="offset" />
    <inkscape:path-effect
       effect="offset"
       id="path-effect861"
       is_visible="true"
       lpeversion="1"
       linejoin_type="miter"
       unit="px"
       offset="20"
       miter_limit="4"
       attempt_force_join="true"
       update_on_knot_move="true" />
    <inkscape:path-effect
       update_on_knot_move="true"
       attempt_force_join="true"
       miter_limit="4"
       offset="10"
       unit="px"
       linejoin_type="miter"
       lpeversion="1"
       is_visible="true"
       id="path-effect975"
       effect="offset" />
    <inkscape:path-effect
       update_on_knot_move="true"
       attempt_force_join="true"
       miter_limit="4"
       offset="10"
       unit="px"
       linejoin_type="miter"
       lpeversion="1"
       is_visible="true"
       id="path-effect946"
       effect="offset" />
    <inkscape:path-effect
       update_on_knot_move="true"
       attempt_force_join="true"
       miter_limit="4"
       offset="1.5"
       unit="mm"
       linejoin_type="miter"
       lpeversion="1"
       is_visible="true"
       id="path-effect940"
       effect="offset" />
  </defs>
  <sodipodi:namedview
     fit-margin-bottom="0"
     fit-margin-right="0"
     fit-margin-left="0"
     fit-margin-top="0"
     inkscape:current-layer="svg853"
     inkscape:window-maximized="1"
     inkscape:window-y="-9"
     inkscape:window-x="-9"
     inkscape:cy="20.448538"
     inkscape:cx="9.1638542"
     inkscape:zoom="11.313709"
     showgrid="false"
     id="namedview855"
     inkscape:window-height="1001"
     inkscape:window-width="1920"
     inkscape:pageshadow="2"
     inkscape:pageopacity="0"
     guidetolerance="10"
     gridtolerance="10"
     objecttolerance="10"
     borderopacity="1"
     bordercolor="#666666"
     pagecolor="#ffffff"
     inkscape:document-rotation="0" />
  <path
     d="M 3.4121094 3.59375 C 3.2367711 3.59685 3.1904234 3.7164315 3.3105469 3.8671875 C 3.8491572 4.5431385 5.7109375 7.2050781 5.7109375 7.2050781 C 5.9456975 7.5406701 5.8846596 8.0355324 5.5742188 8.3027344 C 5.5742188 8.3027344 4.7565944 9.0033734 4.2402344 9.6777344 C 3.1360411 11.124345 3.3462716 12.513672 1.2890625 12.513672 C 0.58987819 12.513672 0.27929687 13.291016 0.27929688 13.291016 C 0.13213957 13.673213 7.4014868e-17 14.320877 0 14.730469 L 0 17.744141 C 0 18.153732 0.13237336 18.801304 0.27929688 19.183594 C 0.27929688 19.183594 0.58337489 19.959302 1.28125 19.960938 C 4.1194488 19.967938 4.8275108 22.315505 7.0898438 23.820312 C 7.2385927 23.919223 7.2402344 23.919922 7.2402344 23.919922 C 7.4067914 24.023557 7.580076 24.440543 7.625 24.847656 L 7.6699219 27.648438 C 7.6370119 28.056719 7.9459246 28.40625 8.3554688 28.40625 L 11.695312 28.40625 C 12.104951 28.40625 12.54847 28.073541 12.679688 27.685547 L 12.919922 26.835938 C 13.012532 26.436912 13.421292 26.145818 13.828125 26.193359 C 13.828125 26.193359 14.838903 26.308594 15.716797 26.308594 C 17.04341 26.308594 18.802734 26 18.802734 26 C 19.206154 25.92928 19.534101 26.20569 19.53125 26.615234 L 19.466797 27.652344 C 19.417567 28.058943 19.711502 28.40625 20.121094 28.40625 L 24.205078 28.40625 C 25.23602 28.40625 27.211905 25.081923 27.642578 24.378906 C 28.386405 23.164531 28.913047 21.92979 29.242188 20.712891 C 30.342408 21.493928 31.327037 21.668439 31.839844 21.703125 C 32.04506 21.717055 32.049367 21.660329 31.873047 21.554688 C 31.01731 21.041974 30.132654 19.517622 29.626953 18.535156 C 29.749242 17.100981 29.608114 15.702947 29.242188 14.378906 C 29.000955 13.50603 28.650571 12.670956 28.224609 11.875 L 24 16.769531 C 23.13013 17.777271 21.67108 18.02149 20.519531 17.357422 L 16.583984 15.087891 L 11.164062 21.662109 C 10.185123 22.849445 8.4486376 23.01572 7.2617188 22.037109 C 6.0761509 21.059624 5.9092693 19.322228 6.8867188 18.136719 L 13.798828 9.7539062 C 14.660265 8.7092865 16.148124 8.4401475 17.322266 9.1171875 L 19.792969 10.541016 L 19.792969 10.539062 L 20.869141 11.162109 L 21.746094 11.667969 L 24.568359 8.3984375 L 25.009766 7.9570312 C 22.552659 5.9188155 19.309928 4.6582283 15.716797 4.6582031 C 13.519677 4.6582041 9.9199219 5.7519531 9.9199219 5.7519531 C 9.5280489 5.8710631 8.9317151 5.7772127 8.5957031 5.5429688 C 8.5957031 5.5429688 6.0508812 3.7674491 3.4492188 3.5957031 C 3.4363868 3.5948511 3.4237984 3.593533 3.4121094 3.59375 z M 15.976562 5.8125 C 17.775408 5.8125 19.530772 6.1100287 21.195312 6.6992188 C 21.583026 6.8364658 21.78759 7.2626776 21.650391 7.6503906 C 21.542266 7.9559246 21.253921 8.1464844 20.947266 8.1464844 C 20.864806 8.1464844 20.781353 8.1325456 20.699219 8.1035156 C 19.194598 7.5709356 17.605671 7.3007813 15.976562 7.3007812 C 15.191974 7.3007812 14.06154 7.4612699 12.708984 7.7636719 C 12.307621 7.8535219 11.910019 7.6006287 11.820312 7.1992188 C 11.730552 6.7978558 11.983404 6.4002529 12.384766 6.3105469 C 13.863163 5.9799579 15.071602 5.812501 15.976562 5.8125 z M 6.6953125 9.4140625 A 0.83788005 1.5639897 0 0 1 7.5351562 10.976562 A 0.8378906 1.5640095 0 0 1 5.859375 10.976562 A 0.83788005 1.5639897 0 0 1 6.6953125 9.4140625 z "
     style="overflow:hidden;fill:#000000;fill-opacity:1;stroke-width:0.0456816"
     id="path863" />
  <path
     id="path971"
     d="m 30.647124,3.5550854 a 1.2702702,1.2702702 0 0 0 -0.106947,0.00433 l -6.269212,0.5172679 h -5.09e-4 a 1.2702702,1.2702702 0 0 0 0.208383,2.5317207 h 5.08e-4 l 0.1061,-0.00874 3.07299,-0.2523151 -6.029194,6.9862121 -5.057759,-2.917021 a 1.2702702,1.2702702 0 0 0 -1.614564,0.292262 l -6.9113226,8.38247 a 1.2701432,1.2701432 0 0 0 0.1719983,1.788005 1.2701432,1.2701432 0 0 0 1.7880053,-0.171998 l 6.227654,-7.55335 5.036725,2.904893 a 1.2702702,1.2702702 0 0 0 1.59616,-0.27038 l 6.555028,-7.5955007 0.03867,2.7863257 a 1.2701432,1.2701432 0 0 0 1.2877,1.252417 1.2701432,1.2701432 0 0 0 1.252332,-1.287698 L 31.91591,4.8976591 a 1.2702702,1.2702702 0 0 0 -0.512688,-1.0911051 1.2702702,1.2702702 0 0 0 -5.95e-4,-4.343e-4 1.2702702,1.2702702 0 0 0 -0.002,-0.00152 1.2702702,1.2702702 0 0 0 -0.0047,-0.00339 1.2702702,1.2702702 0 0 0 -0.01128,-0.00814 1.2702702,1.2702702 0 0 0 -0.73744,-0.2379823 z"
     style="color:#000000;font-style:normal;font-variant:normal;font-weight:normal;font-stretch:normal;font-size:medium;line-height:normal;font-family:sans-serif;font-variant-ligatures:normal;font-variant-position:normal;font-variant-caps:normal;font-variant-numeric:normal;font-variant-alternates:normal;font-variant-east-asian:normal;font-feature-settings:normal;font-variation-settings:normal;text-indent:0;text-align:start;text-decoration:none;text-decoration-line:none;text-decoration-style:solid;text-decoration-color:#000000;letter-spacing:normal;word-spacing:normal;text-transform:none;writing-mode:lr-tb;direction:ltr;text-orientation:mixed;dominant-baseline:auto;baseline-shift:baseline;text-anchor:start;white-space:normal;shape-padding:0;shape-margin:0;inline-size:0;clip-rule:nonzero;display:inline;overflow:visible;visibility:visible;isolation:auto;mix-blend-mode:normal;color-interpolation:sRGB;color-interpolation-filters:linearRGB;solid-color:#000000;solid-opacity:1;vector-effect:none;fill:#000000;fill-opacity:1;fill-rule:nonzero;stroke:none;stroke-width:2.54029;stroke-linecap:round;stroke-linejoin:round;stroke-miterlimit:4;stroke-dasharray:none;stroke-dashoffset:0;stroke-opacity:1;color-rendering:auto;image-rendering:auto;shape-rendering:auto;text-rendering:auto;enable-background:accumulate;stop-color:#000000" />
  <path
     id="path1508"
     d="m 32.294922,2.6015625 0.167969,0.1445313 -0.08594,-0.085938 z"
     style="color:#000000;font-style:normal;font-variant:normal;font-weight:normal;font-stretch:normal;font-size:medium;line-height:normal;font-family:sans-serif;font-variant-ligatures:normal;font-variant-position:normal;font-variant-caps:normal;font-variant-numeric:normal;font-variant-alternates:normal;font-variant-east-asian:normal;font-feature-settings:normal;font-variation-settings:normal;text-indent:0;text-align:start;text-decoration:none;text-decoration-line:none;text-decoration-style:solid;text-decoration-color:#000000;letter-spacing:normal;word-spacing:normal;text-transform:none;writing-mode:lr-tb;direction:ltr;text-orientation:mixed;dominant-baseline:auto;baseline-shift:baseline;text-anchor:start;white-space:normal;shape-padding:0;shape-margin:0;inline-size:0;clip-rule:nonzero;display:inline;overflow:visible;visibility:visible;isolation:auto;mix-blend-mode:normal;color-interpolation:sRGB;color-interpolation-filters:linearRGB;solid-color:#000000;solid-opacity:1;vector-effect:none;fill:#00ff00;fill-opacity:0.63529414;fill-rule:nonzero;stroke:none;stroke-width:2.54029;stroke-linecap:round;stroke-linejoin:round;stroke-miterlimit:4;stroke-dasharray:none;stroke-dashoffset:0;stroke-opacity:1;color-rendering:auto;image-rendering:auto;shape-rendering:auto;text-rendering:auto;enable-background:accumulate;stop-color:#000000" />
</svg>
