<?xml version="1.0" encoding="UTF-8" standalone="no"?>
<svg
   xmlns:dc="http://purl.org/dc/elements/1.1/"
   xmlns:cc="http://creativecommons.org/ns#"
   xmlns:rdf="http://www.w3.org/1999/02/22-rdf-syntax-ns#"
   xmlns:svg="http://www.w3.org/2000/svg"
   xmlns="http://www.w3.org/2000/svg"
   xmlns:sodipodi="http://sodipodi.sourceforge.net/DTD/sodipodi-0.dtd"
   xmlns:inkscape="http://www.inkscape.org/namespaces/inkscape"
   class="svg-icon"
   style="overflow:hidden;fill:currentColor"
   viewBox="0 0 32 32"
   version="1.1"
   id="svg853"
   sodipodi:docname="account_purpose_logo_SAVINGS.svg"
   width="32"
   height="32"
   inkscape:version="1.0 (4035a4fb49, 2020-05-01)">
  <metadata
     id="metadata859">
    <rdf:RDF>
      <cc:Work
         rdf:about="">
        <dc:format>image/svg+xml</dc:format>
        <dc:type
           rdf:resource="http://purl.org/dc/dcmitype/StillImage" />
        <dc:title></dc:title>
      </cc:Work>
    </rdf:RDF>
  </metadata>
  <defs
     id="defs857" />
  <sodipodi:namedview
     inkscape:document-rotation="0"
     pagecolor="#ffffff"
     bordercolor="#666666"
     borderopacity="1"
     objecttolerance="10"
     gridtolerance="10"
     guidetolerance="10"
     inkscape:pageopacity="0"
     inkscape:pageshadow="2"
     inkscape:window-width="1920"
     inkscape:window-height="1001"
     id="namedview855"
     showgrid="false"
     fit-margin-top="0"
     fit-margin-left="0"
     fit-margin-right="0"
     fit-margin-bottom="0"
     inkscape:zoom="17.699767"
     inkscape:cx="20.960258"
     inkscape:cy="15.334702"
     inkscape:window-x="-9"
     inkscape:window-y="-9"
     inkscape:window-maximized="1"
     inkscape:current-layer="svg853" />
  <path
     id="path863"
     style="fill:#000000;fill-opacity:1;stroke-width:0.0456816"
     d="M 3.4116658,3.5942638 C 3.2363275,3.5974021 3.1898295,3.7168828 3.309953,3.8676394 3.8485637,4.5435905 5.7108243,7.2056975 5.7108243,7.2056975 5.9455839,7.5412887 5.8836857,8.0345864 5.5732441,8.301788 c 0,0 -0.8159908,0.7025103 -1.3323504,1.3768716 C 3.1367,11.12527 3.3464649,12.513774 1.2892558,12.513774 c -0.69918431,0 -1.01008048,0.777212 -1.01008048,0.777212 C 0.132018,13.673183 0,14.320989 0,14.730581 v 3.01329 c 0,0.409591 0.13189465,1.057483 0.2788181,1.439773 0,0 0.30399733,0.775309 1.0018724,0.776944 2.8381991,0.007 3.5474392,2.355108 5.8097716,3.859917 0.1487488,0.09891 0.1502494,0.09886 0.1502494,0.09886 0.166557,0.103635 0.3403372,0.521508 0.3852604,0.928621 l 0.043897,2.800496 c -0.032909,0.408282 0.2756807,0.757315 0.685224,0.757315 h 3.3404661 c 0.409638,0 0.852099,-0.332472 0.983315,-0.720466 l 0.241256,-0.849214 c 0.09261,-0.399026 0.501178,-0.690295 0.908011,-0.642754 0,0 1.009862,0.116166 1.887756,0.116166 1.326613,0 3.086631,-0.309599 3.086631,-0.309599 0.40342,-0.07072 0.731258,0.205997 0.728407,0.615541 l -0.06504,1.036223 c -0.04923,0.406599 0.245654,0.754103 0.655246,0.754103 h 4.084844 c 1.030942,0 3.006332,-3.323209 3.437005,-4.026226 0.743827,-1.214375 1.26918,-2.449228 1.598321,-3.666127 1.10022,0.781037 2.086672,0.955499 2.599479,0.990185 0.205216,0.01393 0.208,-0.04425 0.03168,-0.149893 -0.855737,-0.512713 -1.740549,-2.035286 -2.24625,-3.017752 0.122289,-1.434175 -0.01835,-2.83343 -0.384278,-4.157471 -1.523461,-5.5125059 -6.948369,-9.721034 -13.526037,-9.7210797 -2.19712,4e-7 -5.7963872,1.0941282 -5.7963872,1.0941282 -0.3918736,0.1191092 -0.9873268,0.024842 -1.3233388,-0.209404 0,0 -2.5460822,-1.7751645 -5.1477452,-1.9469104 -0.012832,-8.517e-4 -0.025079,-0.00119 -0.036768,-9.842e-4 z M 15.976514,5.8116056 c 1.798844,0 3.555028,0.2987462 5.219569,0.8879361 0.387714,0.1372471 0.590715,0.5628562 0.453516,0.9505697 -0.108125,0.3055336 -0.395343,0.4964306 -0.701998,0.4964306 -0.08246,0 -0.166261,-0.013887 -0.248395,-0.042915 -1.504621,-0.5325803 -3.093584,-0.8026398 -4.722692,-0.8026398 -0.784589,0 -1.914213,0.1599458 -3.266769,0.4623475 -0.401363,0.089846 -0.799568,-0.1629183 -0.889275,-0.5643285 -0.08976,-0.4013631 0.162877,-0.7994787 0.564239,-0.889185 1.478397,-0.3305895 2.686844,-0.498215 3.591805,-0.4982156 z M 6.6949416,9.4131354 a 0.83788005,1.5639897 0 0 1 0.8393103,1.5639706 0.83788275,1.5639948 0 0 1 -1.6757654,0 0.83788005,1.5639897 0 0 1 0.8364551,-1.5639706 z" />
</svg>
