<?xml version="1.0" encoding="UTF-8" standalone="no"?>
<svg
   xmlns:dc="http://purl.org/dc/elements/1.1/"
   xmlns:cc="http://creativecommons.org/ns#"
   xmlns:rdf="http://www.w3.org/1999/02/22-rdf-syntax-ns#"
   xmlns:svg="http://www.w3.org/2000/svg"
   xmlns="http://www.w3.org/2000/svg"
   xmlns:sodipodi="http://sodipodi.sourceforge.net/DTD/sodipodi-0.dtd"
   xmlns:inkscape="http://www.inkscape.org/namespaces/inkscape"
   inkscape:version="1.0 (4035a4fb49, 2020-05-01)"
   height="768"
   width="1024"
   sodipodi:docname="card.svg"
   id="svg887"
   version="1.1"
   viewBox="0 0 1024 768"
   style="overflow:hidden;fill:currentColor"
   class="svg-icon">
  <metadata
     id="metadata893">
    <rdf:RDF>
      <cc:Work
         rdf:about="">
        <dc:format>image/svg+xml</dc:format>
        <dc:type
           rdf:resource="http://purl.org/dc/dcmitype/StillImage" />
        <dc:title></dc:title>
      </cc:Work>
    </rdf:RDF>
  </metadata>
  <defs
     id="defs891" />
  <sodipodi:namedview
     inkscape:current-layer="svg887"
     inkscape:window-maximized="1"
     inkscape:window-y="-9"
     inkscape:window-x="-9"
     inkscape:cy="450.98573"
     inkscape:cx="504.85133"
     inkscape:zoom="0.55311771"
     fit-margin-bottom="0"
     fit-margin-right="0"
     fit-margin-left="0"
     fit-margin-top="0"
     showgrid="false"
     id="namedview889"
     inkscape:window-height="1001"
     inkscape:window-width="1920"
     inkscape:pageshadow="2"
     inkscape:pageopacity="0"
     guidetolerance="10"
     gridtolerance="10"
     objecttolerance="10"
     borderopacity="1"
     bordercolor="#666666"
     pagecolor="#ffffff" />
  <path
     id="path885"
     d="M 960,768 H 64 A 64,64 0 0 1 0,704 V 64 A 64,64 0 0 1 64,0 h 896 c 35.392,0 64,28.608 64,64 v 640 c 0,35.392 -28.608,64 -64,64 z M 960,64 H 64 v 64 h 896 z m 0,192 H 64 V 704 H 960 Z M 320,512 H 128 V 320 H 320 Z M 256,640 H 128 v -64 h 128 z m 192,0 H 320 v -64 h 128 z m 192,0 H 512 v -64 h 128 z m 128,0 h -64 v -64 h 64 z m 128,0 h -64 v -64 h 64 z" />
</svg>
