<?xml version="1.0" encoding="UTF-8" standalone="no"?>
<svg
   xmlns:dc="http://purl.org/dc/elements/1.1/"
   xmlns:cc="http://creativecommons.org/ns#"
   xmlns:rdf="http://www.w3.org/1999/02/22-rdf-syntax-ns#"
   xmlns:svg="http://www.w3.org/2000/svg"
   xmlns="http://www.w3.org/2000/svg"
   xmlns:sodipodi="http://sodipodi.sourceforge.net/DTD/sodipodi-0.dtd"
   xmlns:inkscape="http://www.inkscape.org/namespaces/inkscape"
   inkscape:version="1.0 (4035a4fb49, 2020-05-01)"
   height="543.14191"
   width="700.50079"
   sodipodi:docname="savings.svg"
   id="svg853"
   version="1.1"
   viewBox="0 0 700.50079 543.14191"
   style="overflow:hidden;fill:currentColor"
   class="svg-icon">
  <metadata
     id="metadata859">
    <rdf:RDF>
      <cc:Work
         rdf:about="">
        <dc:format>image/svg+xml</dc:format>
        <dc:type
           rdf:resource="http://purl.org/dc/dcmitype/StillImage" />
        <dc:title></dc:title>
      </cc:Work>
    </rdf:RDF>
  </metadata>
  <defs
     id="defs857" />
  <sodipodi:namedview
     inkscape:current-layer="svg853"
     inkscape:window-maximized="1"
     inkscape:window-y="-9"
     inkscape:window-x="-9"
     inkscape:cy="271.57162"
     inkscape:cx="332.82031"
     inkscape:zoom="0.78222656"
     fit-margin-bottom="0"
     fit-margin-right="0"
     fit-margin-left="0"
     fit-margin-top="0"
     showgrid="false"
     id="namedview855"
     inkscape:window-height="1001"
     inkscape:window-width="1920"
     inkscape:pageshadow="2"
     inkscape:pageopacity="0"
     guidetolerance="10"
     gridtolerance="10"
     objecttolerance="10"
     borderopacity="1"
     bordercolor="#666666"
     pagecolor="#ffffff" />
  <path
     d="m 74.68359,0.00131382 c -3.83827,0.0687 -4.85614,2.68420998 -2.22656,5.98436998 11.79054,14.7970102 52.55664,73.0722702 52.55664,73.0722702 5.13904,7.34631 3.78405,18.14492 -3.01172,23.994136 0,0 -17.86257,15.37841 -29.16602,30.14062 -24.17152,31.66724 -19.57963,62.0625 -64.61328,62.0625 -15.3056,0 -22.11132,17.01368 -22.11132,17.01368 C 2.88996,220.63544 0,234.81635 0,243.78256 v 65.96289 c 0,8.96621 2.88726,23.14898 6.10351,31.51758 0,0 6.6547,16.97201 21.93164,17.00781 62.13003,0.1535 77.65576,51.55484 127.17969,84.49609 3.25621,2.16531 3.28906,2.16406 3.28906,2.16407 3.64604,2.26867 7.4502,11.41615 8.4336,20.32812 l 0.96093,61.30469 c -0.72041,8.93756 6.03483,16.57812 15,16.57812 h 73.125 c 8.96723,0 18.65298,-7.27804 21.5254,-15.77148 l 5.28125,-18.58985 c 2.02718,-8.73494 10.97111,-15.11101 19.87695,-14.07031 0,0 22.10653,2.54297 41.32422,2.54297 29.04041,0 67.56836,-6.77734 67.56836,-6.77734 8.83113,-1.54827 16.00771,4.50942 15.94531,13.47461 l -1.42383,22.68359 c -1.07754,8.90072 5.37754,16.50781 14.34375,16.50781 h 89.41992 c 22.56799,0 65.81056,-72.74722 75.23828,-88.13672 16.28285,-26.58345 27.78319,-53.61519 34.98829,-80.2539 24.08454,17.0974 45.67862,20.91648 56.90429,21.67578 4.49231,0.30494 4.55327,-0.96857 0.69336,-3.28125 -18.73264,-11.22362 -38.10175,-44.55373 -49.17187,-66.06055 2.67697,-31.39504 -0.40167,-62.02564 -8.41211,-91.00976 C 606.77545,115.40317 488.02067,23.275744 344.03125,23.274744 c -48.09641,1e-5 -126.88672,23.95118 -126.88672,23.95118 -8.57837,2.60738 -21.61323,0.5438 -28.96875,-4.58399 0,0 -55.7354,-38.8595102 -112.6875,-42.61914018 -0.28071,-0.0186 -0.5488,-0.0261 -0.80469,-0.0215 z M 349.73633,48.540374 c 39.37784,0 77.82187,6.53975 114.25976,19.4375 8.4873,3.00443 12.93114,12.32129 9.92774,20.80859 -2.36691,6.68833 -8.6543,10.86719 -15.36719,10.86719 -1.80511,0 -3.63955,-0.30398 -5.4375,-0.93945 -32.93716,-11.65853 -67.72059,-17.57031 -103.38281,-17.57031 -17.17518,0 -41.90338,3.50132 -71.51172,10.12109 -8.78611,1.96679 -17.50307,-3.56639 -19.4668,-12.35352 -1.96475,-8.7861 3.56546,-17.50111 12.35156,-19.46484 32.36308,-7.23682 58.81677,-10.90625 78.62696,-10.90625 z M 146.55664,127.38021 a 18.341741,34.236756 0 0 1 18.37305,34.23633 18.3418,34.236868 0 0 1 -36.6836,0 18.341741,34.236756 0 0 1 18.31055,-34.23633 z"
     style="fill:#000000;fill-opacity:1"
     id="path863" />
</svg>
