<?xml version="1.0" encoding="UTF-8" standalone="no"?>
<svg
   xmlns:dc="http://purl.org/dc/elements/1.1/"
   xmlns:cc="http://creativecommons.org/ns#"
   xmlns:rdf="http://www.w3.org/1999/02/22-rdf-syntax-ns#"
   xmlns:svg="http://www.w3.org/2000/svg"
   xmlns="http://www.w3.org/2000/svg"
   xmlns:sodipodi="http://sodipodi.sourceforge.net/DTD/sodipodi-0.dtd"
   xmlns:inkscape="http://www.inkscape.org/namespaces/inkscape"
   class="svg-icon"
   style="overflow:hidden;fill:currentColor"
   viewBox="0 0 32 32"
   version="1.1"
   id="svg887"
   sodipodi:docname="account_purpose_logo_CREDIT.svg"
   width="32"
   height="32"
   inkscape:version="1.0 (4035a4fb49, 2020-05-01)">
  <metadata
     id="metadata893">
    <rdf:RDF>
      <cc:Work
         rdf:about="">
        <dc:format>image/svg+xml</dc:format>
        <dc:type
           rdf:resource="http://purl.org/dc/dcmitype/StillImage" />
        <dc:title></dc:title>
      </cc:Work>
    </rdf:RDF>
  </metadata>
  <defs
     id="defs891" />
  <sodipodi:namedview
     inkscape:document-rotation="0"
     pagecolor="#ffffff"
     bordercolor="#666666"
     borderopacity="1"
     objecttolerance="10"
     gridtolerance="10"
     guidetolerance="10"
     inkscape:pageopacity="0"
     inkscape:pageshadow="2"
     inkscape:window-width="1920"
     inkscape:window-height="1001"
     id="namedview889"
     showgrid="false"
     fit-margin-top="0"
     fit-margin-left="0"
     fit-margin-right="0"
     fit-margin-bottom="0"
     inkscape:zoom="17.699767"
     inkscape:cx="27.90278"
     inkscape:cy="18.028728"
     inkscape:window-x="-9"
     inkscape:window-y="-9"
     inkscape:window-maximized="1"
     inkscape:current-layer="svg887" />
  <path
     style="stroke-width:0.03125"
     d="M 30,28 H 2 A 2,2 0 0 1 0,26 V 6 A 2,2 0 0 1 2,4 h 28 c 1.106,0 2,0.894 2,2 v 20 c 0,1.105999 -0.894,2 -2,2 z M 30,6 H 2 v 2.0000001 h 28 z m 0,6 H 2 V 26 H 30 Z M 10,20 H 4.0000001 V 14 H 10 Z M 8,24 H 4.0000001 V 21.999999 H 8 Z m 6,0 h -4 v -2.000001 h 4 z m 6,0 h -4 v -2.000001 h 4 z m 4,0 h -2 v -2.000001 h 2 z m 4,0 H 26.000001 V 21.999999 H 28 Z"
     id="path885" />
</svg>
