<?xml version="1.0" encoding="UTF-8" standalone="no"?>
<svg
   xmlns:dc="http://purl.org/dc/elements/1.1/"
   xmlns:cc="http://creativecommons.org/ns#"
   xmlns:rdf="http://www.w3.org/1999/02/22-rdf-syntax-ns#"
   xmlns:svg="http://www.w3.org/2000/svg"
   xmlns="http://www.w3.org/2000/svg"
   xmlns:sodipodi="http://sodipodi.sourceforge.net/DTD/sodipodi-0.dtd"
   xmlns:inkscape="http://www.inkscape.org/namespaces/inkscape"
   inkscape:version="1.0 (4035a4fb49, 2020-05-01)"
   height="78.449997"
   width="121.62941"
   sodipodi:docname="bank_logo_ING.svg"
   version="1.1"
   viewBox="0 0 121.62941 78.449998"
   id="Layer_1"
   data-name="Layer 1">
  <metadata
     id="metadata861">
    <rdf:RDF>
      <cc:Work
         rdf:about="">
        <dc:format>image/svg+xml</dc:format>
        <dc:type
           rdf:resource="http://purl.org/dc/dcmitype/StillImage" />
        <dc:title>ING_Leon</dc:title>
      </cc:Work>
    </rdf:RDF>
  </metadata>
  <sodipodi:namedview
     inkscape:current-layer="Layer_1"
     inkscape:window-maximized="1"
     inkscape:window-y="-9"
     inkscape:window-x="-9"
     inkscape:cy="35.571386"
     inkscape:cx="56.567062"
     inkscape:zoom="4.1344956"
     fit-margin-bottom="0"
     fit-margin-right="0"
     fit-margin-left="0"
     fit-margin-top="0"
     showgrid="false"
     id="namedview859"
     inkscape:window-height="1001"
     inkscape:window-width="1920"
     inkscape:pageshadow="2"
     inkscape:pageopacity="0"
     guidetolerance="10"
     gridtolerance="10"
     objecttolerance="10"
     borderopacity="1"
     bordercolor="#666666"
     pagecolor="#ffffff" />
  <defs
     id="defs850">
    <style
       id="style848">.cls-1{fill:#000169;}.cls-2{fill:#ff6800;}</style>
  </defs>
  <title
     id="title852">ING_Leon</title>
  <path
     id="path856"
     d="m 38.859411,78.33 a 14.05,14.05 0 0 1 -1.3,-5.6 7.15,7.15 0 0 1 0.65,-3.63 l -2.37,0.45 c -0.64,0.81 -0.86,1.25 -0.86,1.67 l 1.08,-0.42 c 0.22,0 0.43,0.42 0.64,0.86 -0.21,1.07 -1.5,1.07 -1.94,1.5 -0.64,2.16 1.3,3.45 1.52,5.17 z M 121.62941,50.65 A 36.43,36.43 0 0 0 110.83941,25 c -3,-3 -6.28,-4.46 -8.87,-7.44 a 15.69,15.69 0 0 1 -3.139999,-4.3 10.76,10.76 0 0 0 -3,-2.37 l 0.66,1.94 h -0.22 a 5.39,5.39 0 0 1 -3,-1.29 l 0.85,-0.87 c -0.22,-0.4 -0.85,-0.4 -1.3,-0.4 -3.45,-0.59 -6.6,1.27 -10,1.91 v 0.43 c 2.15,0.65 2.55,3.24 3.75,4.53 h 1.24 c 0.43,0 1.08,0.42 1.51,0.42 a 4.35,4.35 0 0 0 -0.43,-1.28 0.81,0.81 0 0 1 1.29,0 c 1.08,0.65 2.59,-0.43 3.67,1.28 a 6.79,6.79 0 0 0 -3.67,0.67 c 0,0.22 0.66,0.6 0.44,1 -1.07,-0.44 -2.38,0 -2.81,-0.82 l -0.21,0.16 a 11.8,11.8 0 0 0 5.18,3.43 c 2.81,0.44 5.18,-0.85 7.899999,-0.21 9.73,4.75 16.64,15.85 16.64,26.94 0,15.85 -9.06,22.1 -14.7,22.1 a 6.19,6.19 0 0 1 -3.359999,-1.25 30,30 0 0 0 0.999999,-8.67 c 0,-9.16 -3.619999,-19.08 -8.579999,-24.14 -2.38,-2.37 -4.93,-4.31 -7.58,-4.31 -1.3,0 -2.6,0 -3.45,1.08 a 4.29,4.29 0 0 0 -1.51,3.66 12.07,12.07 0 0 1 -6.68,1.94 13,13 0 0 1 -8,-3 v -3.28 c -0.63,-0.21 -2.78,-1.51 -1.7,-2.49 a 3.91,3.91 0 0 1 1.29,0.78 c -0.22,-1.41 -0.22,-3.14 -1.29,-4.43 a 2.87,2.87 0 0 1 -1.72,-0.43 3.77,3.77 0 0 1 -1.31,-2.59 c 0.66,1.08 1.73,0.65 2.38,1.29 -1.07,-2.58 -0.65,-3.66 -2.59,-7.44 -0.43,-1.93 -2.37,-3 -3.66,-4.3 -0.65,-0.43 -0.86,-1.08 -1.65,-1.08 -0.85,-0.21 -0.85,-1.29 -0.85,-1.91 a 6.18,6.18 0 0 1 1.27,0.62 c -1.28,-2.88 -2.15,-6.14 -4.95,-7.88 l -0.65,0.43 h -3.45 a 15.31,15.31 0 0 1 1.94,-1.08 2.68,2.68 0 0 0 -2.35,-0.86 6.54,6.54 0 0 1 -2.21,0.86 h -0.21 c 0,-0.64 -0.22,-1.51 1,-1.93 a 11.23,11.23 0 0 0 -3.84,0 c -0.22,1.07 -0.86,1.72 -0.86,2.58 -0.64,0.43 -0.87,1.08 -1.52,1.73 0,-1.3 0.65,-2.59 0.88,-3.89 -0.88,0.22 -1.95,0.87 -2.38,0.87 a 15.77,15.77 0 0 0 -4.72,-1.71 c 1.3,0.85 0.66,2.36 0.87,3.44 l -0.87,-0.44 c -0.2,-0.86 -1.29,-1.51 -1.5,-2.58 a 5.78,5.78 0 0 0 -3.24,1.07 v 0.22 a 2.87,2.87 0 0 1 1.94,1.29 c -1.5,0 -2.58,-0.65 -4.1,-0.65 0,0 0,-0.21 -0.19,-0.21 a 4.9,4.9 0 0 0 -1.57,1.29 9.27,9.27 0 0 0 -3.22,4.3 c 0.43,0 1.08,0 1.3,0.22 -0.87,0.21 -1.3,1.29 -2.16,1.51 v 3.14 a 6.23,6.23 0 0 0 -1.94,2.59 38.35,38.35 0 0 0 -1.3,11.53 1.68,1.68 0 0 1 -1.08,1.28 v 3.34 a 20.2,20.2 0 0 1 1.94,-1.61 v 2.69 c -0.87,0 -1.51,1.08 -1.51,1.73 0,0.85 0.22,1.72 0.22,2.58 a 1.36,1.36 0 0 0 0.21,0.87 c 0,-0.44 0.43,-0.87 1.08,-1.08 a 1.86,1.86 0 0 1 1.29,-0.44 8.63,8.63 0 0 0 -1.29,2.38 l -0.65,0.64 a 2.12,2.12 0 0 0 -0.22,0.65 65.23,65.23 0 0 0 3.89,12.52 c -1.73,2.78 -3.67,8.17 -5,13.34 a 5.35,5.35 0 0 0 -3.89,-1.28 4.7,4.7 0 0 0 -3.3600001,1.94 3.45,3.45 0 0 0 -3.84,0.43 c -1.79,1.54 -1.79,2.39 -1.79,3.65 a 4.37,4.37 0 0 0 -1.30999996,3 8.08,8.08 0 0 0 1.30999996,5 H 33.649411 a 5.75,5.75 0 0 0 -1.08,-1.93 c -0.64,-1.29 -0.21,-3 -0.21,-4.32 a 20.7,20.7 0 0 1 2.15,-3.62 c 0.21,-0.65 0,-0.65 0.21,-0.86 l 1.52,-0.25 c 0.85,0 1.5,-0.64 2.58,-0.64 0.65,0.89 0.65,-0.65 1.74,-1.09 2.36,-0.43 4.57,0 5.85,1.73 0,0.25 0.21,0.25 0.21,0.46 h -1.08 c -1.21,-0.46 -2.62,-1.1 -4.13,-0.46 0,0.46 -0.21,0.46 -0.21,1.11 v 1.09 c 0.85,0 1.51,0.81 2.35,1.25 a 3.27,3.27 0 0 1 2.42,-1.25 2.37,2.37 0 0 1 2.59,2.32 v 2.37 a 7.82,7.82 0 0 0 3,1.51 1.59,1.59 0 0 1 -1.73,0.86 h -1.72 c -0.22,-0.21 -0.65,-0.21 -0.65,-0.86 a 16.93,16.93 0 0 0 -1.51,2.58 h 25 c -0.42,-0.85 -0.86,-1.5 -1.07,-1.93 a 14.41,14.41 0 0 1 -0.44,-4.32 l 2.38,-3.19 c 1.29,0 2.37,-0.43 4.74,-0.64 0.44,-0.65 0,-0.9 1.94,-0.9 a 7.83,7.83 0 0 1 3,0.46 c 0.22,0.44 0.22,0.44 0,0.87 -0.42,0.42 -1.28,-0.43 -1.93,-0.22 -0.43,0.43 0.22,0.64 0.22,1.09 0.43,0.37 -1.94,-0.45 -1.94,-0.45 0,0 -0.44,1.26 -0.65,1.7 l 1.29,1.28 c 0.43,0.65 -0.64,1.3 -0.64,2 -0.44,-0.22 -1.3,-0.87 -1.3,-0.65 -0.44,1.73 0,3.23 -0.21,5 h 2.36 l 0.22,-3.66 c 0.22,-2.16 2.8,-6 4.31,-6 a 3.49,3.49 0 0 1 2.12,0.87 c 0.4,0.81 1.4,1.25 1.4,1.67 0,0.42 -0.6,0.65 -1.6,0.65 -0.41,0 -0.41,-0.65 -1.05,-1.07 l -1.3,1.28 c 0,0 1.51,1.3 1.51,2.16 a 2.5,2.5 0 0 1 -0.86,2.16 l -1.3,-2.59 c -0.65,0 -1.72,1.3 -1.72,1.94 0,0.86 -0.43,1.29 -0.43,2.58 h 13.2 a 8.23,8.23 0 0 0 4.33,-1.44 h 2.569999 a 17.5,17.5 0 0 0 13.33,-5.34 c 5.17,-5 8.19,-13.14 8.19,-21 m -46.339999,19.48 -2.15,0.22 a 1.88,1.88 0 0 1 0.87,1.72 2.68,2.68 0 0 1 -0.87,1.73 c -0.43,-0.43 -0.43,-1.08 -0.86,-1.73 -0.43,0 -0.65,1.08 -0.65,1.51 a 10.33,10.33 0 0 0 1.51,4.74 h 1.94 a 38.19,38.19 0 0 1 -0.65,-5.17 10.36,10.36 0 0 1 0.86,-3 m -28.19,2.59 c 0,-0.86 -0.64,-1.07 -1.51,-1.07 -0.41,0 -1.4,0.64 -1.4,1.07 0,0.86 -0.4,5.6 -0.4,5.6 h 1.39 c 0.62,-1.93 1.92,-4.52 1.92,-5.6 m -4.56,-0.22 c -0.23,0 0.22,0.44 -1.93,-1.71 -0.45,0 -1.09,1.28 -1.09,1.71 a 18.08,18.08 0 0 0 1.09,5.82 h 1.7 c 0,-1.93 0.23,-4.09 0.23,-5.82 m 56.3,-54.07 a 2.29,2.29 0 0 0 -1.95,-1.31 c -0.64,-0.86 -1.5,-1.94 -2.37,-1.94 0.65,0 1.51,-0.65 2.58,-0.65 0.44,1.08 1.3,1.73 1.52,2.59 z m -6.48,-4.55 h -2.37 c -0.42,-0.64 -1.08,0 -1.51,0 -0.43,0 -0.65,0 -1.48,-0.64 1.26,0 1.91,-0.65 3,-1.08 0.87,0.65 1.73,0.87 2.37,1.72 m -5.17,24.58 c -1.4,-0.43 -2.2,-1.08 -3.49,-1.08 a 5.5,5.5 0 0 0 -2.58,1.08 c -0.65,-0.86 0.42,-2.59 1.29,-3 a 1.59,1.59 0 0 1 1.73,0 c 0,1.29 1.45,0.64 2.25,1.08 a 5.32,5.32 0 0 1 0.8,1.94 m -0.19,3.12 c -1.21,0 -1.41,-0.17 -2.22,-0.17 a 3.45,3.45 0 0 0 -3,1.46 1.79,1.79 0 0 1 0,-1.82 4.63,4.63 0 0 1 2.59,-1.52 c 1.44,0 2.65,1.08 2.65,2.05 m 4.93,4.75 a 12.78,12.78 0 0 0 -5.74,-1.74 9.6,9.6 0 0 0 -4.21,1.95 l -0.44,-1.95 c 1.3,-0.21 1.3,-1.29 2.16,-1.29 0.65,0 1.49,-0.22 2.09,-0.22 0.6,0 1,-0.41 1.21,-0.41 1.05,0 0.62,1.07 1.26,1.07 0.64,0 1.08,-0.44 1.52,-0.44 1.08,0 1.94,1.74 2.15,3 m 0.65,4.74 c -1.51,0 -3,-0.43 -3.24,-1.08 -0.43,-0.43 0,-1.3 -1.08,-1.3 -0.43,0 -1.07,0.65 -1.07,0.65 -0.4,0.22 -1.6,-0.65 -1.6,0 0,1.08 -0.81,1.51 -1.89,1.51 a 2.78,2.78 0 0 1 -1.29,-0.21 V 48.5 c 2.78,0 2.58,-0.87 3.78,-0.87 0.81,0 1.43,0.43 2.07,0.43 1.08,0 0.44,-0.43 1.52,-0.43 1.08,0 1.5,0.87 2.15,1.07 0,0.65 0.65,1.52 0.65,2.38 m -1.94,4.63 c -0.65,-0.21 -2.16,-0.43 -2.16,-1.08 0,-0.86 -0.43,-1.08 -1.48,-1.08 a 7.77,7.77 0 0 0 -2.65,0.65 5.66,5.66 0 0 1 -0.86,-1.7 10,10 0 0 1 2.9,-0.63 c 1.44,0 2.95,0 2.95,0.63 0,0.84 1.3,1 1.3,3.21 m -37.31,-33.52 c 0,0.22 -0.44,2.16 -0.44,2.16 l -1.72,0.43 1.07,-4.65 a 7.71,7.71 0 0 1 1.09,2.06 m 41.38,41.07 a 4.17,4.17 0 0 1 -0.65,2.8 l -1.3,-1.94 c 0.45,-0.65 0.45,-1.51 1.08,-2.59 0.22,0 0.87,1.51 0.87,1.73 m -5.17,-2.81 c -1.52,0 -0.66,-3 -3.78,-3 -0.6,0 -1,1.09 -1.87,1.3 0,-0.21 0.22,-1.51 0.22,-1.51 a 2,2 0 0 1 1.05,-1.72 c 1.6,0 1.2,0.64 2.43,1.07 a 5,5 0 0 0 1.95,0.65 z m -13.42,-12.17 c -1.93,-1.08 -3,-3 -4.74,-5 1.73,0 2.16,1.74 3.46,1.95 a 7.1,7.1 0 0 1 1.28,1.29 z m -18.35,-15.85 c -1.29,0 -1.94,-0.64 -2.59,-1.84 a 10.44,10.44 0 0 1 0,-2.58 c 0.43,0.87 0.43,1.3 0.86,1.73 0.86,-0.43 0.86,0.63 1.08,0.85 a 5.47,5.47 0 0 1 0.65,1.84 m 35.44,36.46 a 3.71,3.71 0 0 0 -0.66,1.25 c 0,-1 -1.3,-1.68 -2.16,-3.43 l 0.86,-1.52 a 2.74,2.74 0 0 1 1.51,2.16 1.16,1.16 0 0 0 0,0.9 c 0,0.21 0.45,0.21 0.45,0.64 m -4.33,-6.06 a 9.25,9.25 0 0 1 -0.47,2.17 c -1.48,-0.21 -1.48,-1.94 -1.69,-2.15 -1,-1.3 -2.44,-0.22 -3.52,-0.22 -0.43,-1.29 0.22,-1.29 0.22,-2.16 0.65,0 1.29,-0.43 1.9,0 1,-0.43 1.61,0.65 2.66,0.65 a 13.26,13.26 0 0 0 0.86,1.73 m -10.77,-8.85 c 0,0.86 -0.43,1.51 -0.21,2.37 -0.44,-1.3 -1.3,-2.59 -1.74,-3.86 0,-0.22 -0.21,-0.22 0.23,-0.43 0.21,0 1.07,0 1.07,0.21 a 3.88,3.88 0 0 1 0.65,1.71 m -18.79,-16.83 c -0.22,0.87 -1.08,0 -1.29,0 h -1.95 c -0.21,-0.43 -0.43,-0.64 -0.43,-1.08 0.87,-0.21 1.51,-0.64 2.16,-0.21 0.43,0.65 0.86,1.29 1.51,1.29 m 4.74,4.83 a 2.91,2.91 0 0 1 -3.61,-0.2 l 1.72,-0.74 a 8.58,8.58 0 0 0 1.94,1 m 11,12.18 c 0,1.3 -0.21,2.81 -0.21,4.32 -0.65,0 -0.65,-0.44 -0.65,-1.3 a 23.15,23.15 0 0 0 -1.08,-3.67 c -0.43,-1.68 -1.51,-3.12 -2.36,-5 -0.22,-0.87 -1.31,-1.3 -2.17,-2 a 3.86,3.86 0 0 1 3,0.86 c 0,0.43 0.22,0.65 0.87,1.29 1.51,0 1.07,1.95 2.37,2.81 -0.65,0.56 -0.86,1 -1.3,1.39 0.65,0.44 1.3,0.65 1.51,1.3 m -8.42,-6.36 c 0,0.66 -0.41,0.86 -0.81,1.3 a 4.76,4.76 0 0 1 -0.79,-1.51 5.73,5.73 0 0 1 0.2,-1.94 c 0.59,0.65 1.4,1.51 1.4,2.15 m 20.13,19.51 c 0,0.08 -0.4,0.46 -0.4,0.46 a 5.84,5.84 0 0 0 -2.9,-0.68 c 0,-0.85 -0.65,-1.94 -1.08,-1.94 -1.29,0 -1.08,0.87 -2.15,0.87 l 1.93,-1.94 c 0.22,-0.44 0.22,-0.44 0.65,-0.44 0.65,0.44 0.86,0.66 1.51,0.66 a 3.21,3.21 0 0 1 -0.21,1.28 c 0.64,0.44 1.05,-0.21 1.45,0.44 0.6,0.22 1.2,0.43 1.2,1.29 m -17.35,-14.89 c 0,0.4 -0.64,0.84 -0.86,0.84 a 5.1,5.1 0 0 1 -1.28,-2.05 4.45,4.45 0 0 1 0.63,-2.37 c 0.22,0 0.44,0.43 0.65,0.43 0.22,0.22 0,0.87 0.22,1.51 0.64,0.43 1.08,1.21 0.64,1.64 m -16.52,-20.71 a 20.61,20.61 0 0 0 -8.54,-2.7 3.07,3.07 0 0 1 -0.19,1.5 28,28 0 0 1 7,4.21 v 1.94 c -2.16,-2.15 -4.53,-4.31 -7.21,-5 -0.2,0.43 -1,0.86 -1.23,1.72 a 11.51,11.51 0 0 0 -5,-2.36 c -0.65,0 -1.08,-2.27 -1.08,-2.27 a 3.56,3.56 0 0 0 2.16,-2.16 h 0.86 c 0.65,0 0.65,-0.43 0.65,-1.08 0,-1.29 -2.81,-1.29 -4.09,-1.29 -1.52,0 -2.59,0 -3.47,0.64 -0.41,0 -0.2,0.65 -0.2,1.09 0,0.21 0.64,0.64 0.64,0.64 0.44,0 0.87,-0.43 1.3,-0.43 -0.21,1.29 0.21,1.94 1.51,2.59 l -0.18,2.17 c -2.59,0 -4.31,1 -6.25,1.89 a 5.76,5.76 0 0 1 -1.51,-1.71 c -2.59,0.85 -6.94,4.3 -6.94,4.3 v -1.54 c 1.91,-1.72 4.35,-2.59 6.29,-3.57 v -1.49 c -0.86,-0.44 -1.72,0 -2.58,0 a 10.44,10.44 0 0 0 -5,2.09 7.57,7.57 0 0 0 -0.21,-1.45 c 2.37,-1.29 5.21,-2.37 8,-1.94 v -0.86 c -0.22,-0.43 -0.22,-1.08 -0.64,-1.08 -1.3,-1.29 -2.6,-3.23 -2.6,-4.52 l 0.87,-0.41 c -0.43,-1.23 -0.87,-4.44 0,-5.52 a 6.91,6.91 0 0 1 -2.84,-2.59 13.29,13.29 0 0 1 -1.08,-2.93 c 0.65,-1.29 1.08,-1.72 1.69,-3 a 1.34,1.34 0 0 0 1.18,-0.67 c 1.06,-0.22 1.71,-1.29 3,-0.64 a 7.54,7.54 0 0 1 2.38,0.64 1.18,1.18 0 0 0 0.43,1.07 c 1.29,0 1.29,1.28 1.95,2.36 a 5.42,5.42 0 0 0 1.72,0.21 c 1.29,0.4 2.37,0.4 2.8,1 a 8.43,8.43 0 0 1 5.39,-1 19.38,19.38 0 0 0 0.87,-2.57 c 0.21,0.63 0.21,0 0.64,0 0.79,-0.64 1.78,-1.71 3.27,-1.29 0.86,0.65 2.37,0.22 3.23,1.29 0.65,0.85 1.08,2.14 1.73,3.16 -0.65,1.27 0,3 -1.3,3.63 l -1.29,1.3 c -0.43,0 -0.43,0.43 -1.08,0.43 a 6.93,6.93 0 0 1 -0.43,5.09 c 0.43,-0.18 1.08,-0.18 1.08,-0.8 0.22,0.22 0,0.62 0,0.8 v 0.62 a 4.54,4.54 0 0 1 -1.51,3 c -0.43,1.29 -1.51,3 -2.91,3.23 V 28 a 18.88,18.88 0 0 1 8.73,2.36 z m 8.76,13.47 -1.08,0.43 a 6.27,6.27 0 0 1 -4.53,-1.51 c 0.86,0 1.95,-1.09 1.95,-1.09 a 8,8 0 0 0 3.66,2.17 m -6,-4.85 c -1.21,0 -2.72,0.65 -3.37,-0.65 a 7.17,7.17 0 0 0 1.3,-1.29 z m 17.5,20 c 0,1.08 -1.29,2.38 -1.73,3.23 0.44,-1.07 0.44,-3.23 0,-3.23 -0.43,-0.21 -1.29,0 -1.29,-0.43 0,-0.65 0.22,-1.5 0.22,-1.94 0,-0.86 -0.65,-1.29 -0.65,-1.72 0,-1.3 1.51,-1.51 1.94,-2.37 a 11.13,11.13 0 0 1 0.22,2.8 c 0,0.43 0.65,1.73 0,2.8 0,0.65 1.29,0.22 1.29,0.86 m -5,-2.37 c 0,1.29 -0.85,2.37 -1.07,3.67 a 4.28,4.28 0 0 0 -1.06,-3.23 c 0,-0.44 0.61,-0.44 0.2,-1.09 0,0 -1.19,-0.64 -1.19,-1.51 0,-0.87 0.79,-1.51 1.19,-2.15 0,-0.22 0.86,0.43 0.86,1.73 a 3.14,3.14 0 0 1 -0.22,1.29 c -0.23,0.64 1.29,0.64 1.29,1.29 m -17.63,-15.2 c -1.08,0.21 -1.94,-0.86 -3,-1.29 -0.43,-1.18 -0.43,-2.48 -0.86,-3.12 0.86,0.64 2.8,0.64 2.37,2.59 0,0.53 0.86,1 1.51,1.82 m 6,6 a 5.57,5.57 0 0 1 -3.15,-0.64 7.37,7.37 0 0 1 -2.38,-1.73 7.72,7.72 0 0 1 2.38,-0.86 c 0.85,0.86 1.64,2.37 3.15,3.23 m -36,-33.08 -1.5,0.43 0.21,-1.08 a 9.61,9.61 0 0 1 1.29,-1.94 z m 27.45,29.85 c -0.86,0.21 -2.37,0.65 -2.78,-0.43 -1.19,-1.95 -0.59,-3.67 0,-5.06 a 29.49,29.49 0 0 1 0.84,3.55 c 0.22,0.85 1.51,1.3 1.94,1.94 m -6.07,-11.75 c -0.22,1.29 -0.64,3.23 -1.94,4.1 a 3.23,3.23 0 0 0 -0.86,-1.95 c -0.22,0 0,0.65 -0.22,0.65 a 19.27,19.27 0 0 0 -0.49,2.24 2.42,2.42 0 0 1 -2.16,0.21 v -0.64 a 4.69,4.69 0 0 1 -0.22,-1.73 l -0.22,-0.21 c -0.64,0.21 -0.64,0.64 -0.64,1.08 a 3.17,3.17 0 0 0 -0.65,1.5 3,3 0 0 1 -1.94,-0.64 v -1.94 c 0,-0.44 0,-0.44 -0.21,-0.44 l -1.09,1.08 c -0.86,-0.64 -1.08,-2.37 -1.08,-3.44 3.46,-1.94 7.77,-1.3 10.37,-0.22 0.42,0.22 0.85,0.22 1.28,0.43 m 11,17.35 h -0.65 c -2.37,0.78 -4.31,-0.64 -6.25,-1.94 a 11.32,11.32 0 0 1 3.88,-0.65 l 0.65,1.3 a 13.18,13.18 0 0 1 2.37,1.29 m -32,-32.47 -1.08,1.31 c 0.22,2.06 -0.64,3.57 -0.64,5.51 l -1.08,-3.45 a 8.38,8.38 0 0 1 1.08,-2.71 z m 22,27.73 c -1.08,-0.65 -3,-0.86 -2.59,-2.16 a 3.89,3.89 0 0 1 1.51,-1.71 11.07,11.07 0 0 0 1.08,3.87 m 19.79,21.91 h -0.22 c -0.43,-0.65 -0.65,-1.11 -1.08,-1.11 0.65,-2.37 -0.64,-4.31 -1.07,-6.25 v -0.65 c 0.65,1.08 2.37,2.16 2.15,3.23 a 41.33,41.33 0 0 1 0.22,4.78 m -5,-8 c -1.08,0 -1.94,0 -2.59,-1.08 -0.21,0 -0.58,-0.64 -0.78,-0.21 -1.07,0.86 -2.16,-0.64 -3.45,-0.43 a 4.26,4.26 0 0 1 -2.24,1.26 v -0.21 a 2,2 0 0 1 1.29,-1.73 c 1.3,0.44 2.37,-2.37 3.67,-0.86 a 5.08,5.08 0 0 0 1.64,0.21 c 1.51,0.65 1.94,1.94 2.59,3 m -19.58,-17.32 c 0,1.51 -0.21,3.46 -1.72,4.11 l -0.43,-2.15 a 8.55,8.55 0 0 0 2.15,-2 m 7.16,9.41 a 4.31,4.31 0 0 1 -2.41,0.84 20.78,20.78 0 0 1 -3.45,-4 l 3.45,0.65 a 24,24 0 0 1 2.41,2.5 m 12.85,12.27 c -0.86,-0.65 -2.16,-0.65 -2.59,-1.73 a 9.15,9.15 0 0 0 -2.5,-0.21 12.68,12.68 0 0 1 -2.81,0.21 c -0.22,0 0,-0.21 -0.43,-0.43 -1.29,0.43 -2.59,0.43 -3.88,1.73 l 1.08,-2.59 a 13.81,13.81 0 0 0 1.94,-0.43 7.94,7.94 0 0 1 2.16,-0.22 v 0.22 c 2.37,0 5.09,-0.22 6.82,1.72 z m -24.53,-18.17 c -1.29,-1.29 -2.38,-2.37 -2.38,-3.67 a 3.18,3.18 0 0 1 1.94,0.43 c 0,1.08 0.44,1.95 0.44,3.24 m -4.1,-6.14 -0.65,2.68 a 12.92,12.92 0 0 1 -1.51,-4 z m 30.84,28.69 a 17.06,17.06 0 0 0 -0.87,2.56 c -0.43,-1.3 -0.86,-3.2 -2.37,-3.2 a 2.55,2.55 0 0 0 -1.29,-1.75 l -1.65,-0.22 c 0.22,0.86 1.43,0.86 0.6,2 0.83,0.64 1.48,0.64 1.91,1.68 0.43,0.66 0,1.52 0.21,1.94 l -1.29,0.65 c 0,-1.07 0.22,-3.18 -1.21,-3.63 -1.29,0.45 -1.51,-1.29 -2.38,-1.75 -0.42,0 -0.42,-1.07 -1.07,-0.64 -1.08,0.64 -2.37,0 -3.45,0.64 l 1.08,-1.73 c 0.86,-0.64 1.72,-0.43 2.59,-0.64 l 1.72,-0.21 c 1.71,0 3.15,0.85 4.88,1.51 a 2.07,2.07 0 0 1 1.29,2 c 0.43,0.21 1.3,0.21 1.3,0.85 m -17,-9.94 h -0.43 a 6.64,6.64 0 0 1 -2.16,-1.08 5,5 0 0 1 -0.2,-1.29 h 1.7 z m -16.6,-15.41 a 7.39,7.39 0 0 1 -3.4,-2.75 7.11,7.11 0 0 1 -0.59,-2.59 1.83,1.83 0 0 1 1.59,1.07 v 0.22 c 1.08,1.3 2.16,2.26 2.38,4 m 10.34,7.54 c -0.2,1.21 -0.85,1.61 -1.93,3.12 -0.65,0.44 -2,0.65 -3.23,1.3 0.21,-0.65 0.84,-0.86 1.28,-1.51 a 14.12,14.12 0 0 0 1.51,-2.33 4,4 0 0 1 2.37,-0.58 m 15.78,20.79 -0.65,0.65 c -0.64,-0.65 -0.22,-2.37 -1.29,-2.59 -1.08,0 -1.94,-1 -2.37,-1.25 l 0.86,-0.43 a 1.06,1.06 0 0 1 0.86,0 c 0.43,0.43 0.87,0.64 0.87,1.09 0.43,0.59 1.07,0 1.51,0.59 a 3.2,3.2 0 0 1 0.21,1.94 m -19.68,-22.52 c -0.64,1.29 -1.28,2.5 -2.58,2.93 a 7.49,7.49 0 0 1 -3,0 c 0.65,-0.43 1.29,-0.63 2.16,-1.21 l 1.72,-1.72 z m 4.31,9.8 a 2.75,2.75 0 0 1 -2.58,0.44 l -1.29,-1.73 h 3.24 z m -15.55,-16.28 c -1.08,1.09 -2.16,1.51 -2.59,2.81 a 4.11,4.11 0 0 0 -0.42,-1.72 2.79,2.79 0 0 1 1.07,-1.5 c 0.65,0.2 1.07,0.2 1.94,0.41 m 2.4,3.25 a 4.58,4.58 0 0 1 -1.36,3 7.25,7.25 0 0 1 -0.82,0.65 c 0,-1.3 0.62,-2.37 0.62,-3.45 0.59,-0.21 1.18,-0.65 1.56,-0.21 m 3,2.58 -0.86,3.15 c -1.08,0.83 -2.54,0.43 -3.72,0.43 1.56,-0.43 2.86,-2.28 3.72,-3.58 0.22,-0.22 0.44,0 0.86,0 m 1.08,10.89 c 0,0.64 -0.21,3.23 -0.21,3.23 -0.43,-1.51 -1.51,-3 -2.81,-3 a 5.5,5.5 0 0 1 -1.46,-1.94 c -0.59,-0.65 -1.18,0 -2,-0.65 a 4.45,4.45 0 0 0 -2.8,0.65 v -0.65 l 1.51,-1.72 c 1.51,0.21 3.31,0 3.69,1.08 a 8.1,8.1 0 0 1 2.38,1.73 v 0.64 c 0.42,0.21 1.29,0.43 1.72,0.65 m -1.08,6.67 -1.5,1.32 c -0.44,-0.46 0,-1.53 -0.65,-2.19 0,-0.43 0.43,-0.64 0.21,-0.85 -0.21,-0.43 -2.64,-1.3 -2.64,-1.3 a 26.76,26.76 0 0 1 -2.78,-2.15 c -0.86,-0.22 -1.51,0.21 -2.59,0.43 v -0.43 c 0.43,-0.87 0.43,-2 1.73,-2 0.64,0 1.51,0 1.93,0.65 0.87,0 1.3,0.86 1.91,1.08 a 11,11 0 0 0 2.44,1.95 1.33,1.33 0 0 0 0.65,1.3 c 1.29,0 0.87,1.28 1.29,2.15 m -3.21,3.06 -0.58,2.11 -1.41,-3.85 c -1.73,-1.53 -3.67,-1.75 -4.75,-2.62 -0.86,-0.21 -0.86,0.43 -1.29,0 a 2.17,2.17 0 0 1 0.65,-1.72 h 1.29 l 1.29,0.65 c 0.65,0.65 2.16,0.65 2.16,1.94 0,0.22 -0.22,0.43 0.43,1.29 l 2,0.46 z m -5.88,2.11 c 0,1.72 -2.8,4.09 -2.8,4.09 0,-1.08 0.65,-2.37 0.65,-3.67 a 3,3 0 0 0 -1.73,-0.86 c -0.64,0.44 -0.64,0.86 -0.86,1.51 -0.65,1.3 -1.94,2.59 -2.15,3.88 a 0.21,0.21 0 0 1 -0.22,-0.21 c 0,-2.16 0.22,-5.82 1.51,-7.3 1.08,-1.29 1.94,-1.29 3.23,-1.5 l 1.08,0.21 -0.86,1.29 c 0.86,0.45 2.15,1.26 2.15,2.56 m -7.55,-1.3 a 4.44,4.44 0 0 1 -0.63,2.37 C 9.9394109,71.83 9.3294109,70.76 8.2894109,70.76 c -0.85,1.71 -1.07,2.36 -0.22,5 a 5.84,5.84 0 0 1 -1.93,1.24 8.2,8.2 0 0 1 -0.44,-3.23 13.4,13.4 0 0 1 0.65,-4.26 c 0.65,-0.66 1.09,-1.74 1.72,-2.2 h 2.2900001 c -1.0000001,0 -1.0000001,0.9 -1.0000001,1.54 0.61,0.21 1.4600001,0.44 1.4600001,1.47 m -5.5100001,2.37 c -0.22,0 -0.87,-0.65 -1.51,-0.65 -0.61,1.3 0,2.16 0,3.67 a 4.55,4.55 0 0 1 -0.22,1.29 c -0.39,0 -1.17,-0.86 -1.36,-1.72 v -3.41 l 1.8,-2.32 a 2.64,2.64 0 0 1 1.29,3.18 M 49.429411,13.25 a 4.45,4.45 0 0 0 -0.43,-4 c -0.4,-0.87 -1.48,-1.25 -2.57,-2.15 l -1.47,0.9 a 2.5,2.5 0 0 0 -1.18,2.31 8.67,8.67 0 0 1 3.52,3.63 h 0.65 c 0.65,-0.64 1.08,0 1.51,-0.64 m -7.16,1.29 c 0,-0.65 -0.21,-0.65 -0.42,-0.65 -1.08,0 -1.08,-1.72 -1.94,-1.29 -0.43,0 -0.86,-0.43 -1.5,0 0,0.22 0,0.22 0.42,0.22 1.08,0 0.65,1.5 1.51,1.72 z m 3.28,2.59 c 0,0 0.43,0 0,-0.21 l -4.56,-0.65 c -0.42,0.65 -1.51,0.65 -1.51,1.28 h -0.43 a 22.82,22.82 0 0 1 0.43,5.5 1.91,1.91 0 0 1 1.73,1.9 13.56,13.56 0 0 1 2.54,1.3 c 0.4,-0.21 0.59,-0.86 0.8,-1.51 -0.8,-1.08 -2.7,-0.43 -2.7,-2.37 l -1.28,-0.42 a 14.85,14.85 0 0 0 -0.23,-3.37 l 0.23,-0.16 c 0,0.16 0.2,0.38 0.64,0.82 0.85,0 1.72,0.22 2.54,-0.44 0.4,-0.22 0.4,-1.27 0.8,-1.27 0.4,0 0.79,0 1,-0.42 m -10.6,-4.53 c -0.43,-0.43 -1.73,0.22 -2.37,0.44 a 1.79,1.79 0 0 0 -1.5,1.5 h 2.32 a 6.89,6.89 0 0 1 1.51,-1.94 m -4.75,-2.34 c -0.21,-2.1 -2.58,-2.31 -3.66,-3.16 h -0.86 c -1.68,0.63 -2.07,2.36 -2.27,3.78 0.59,1.94 1.84,0.65 2.7,1.94 a 24.46,24.46 0 0 1 4.09,-2.56 m 12.73,19.68 v -1.09 h -2.16 l -0.2,0.21 z m -9.71,-12.39 c 0,-0.42 -0.44,-0.85 -1.07,-1.28 h -5.17 a 1.23,1.23 0 0 0 1.29,1.28 c 0,0.89 0.64,1.05 0.86,1.27 0.65,0.44 0.86,0.44 1.51,0 0.64,0.44 0.86,-0.38 1.08,0 a 12.13,12.13 0 0 1 -0.22,2.94 c -0.22,1.51 -1.51,1.29 -2.59,1.94 0,0.65 -0.64,1.73 0,2.38 a 9.84,9.84 0 0 1 2.21,-1.11 c 0,-0.64 0.64,-1.29 1.5,-1.72 0,-1.94 0.64,-3.79 0.64,-5.72 m -1.72,11.32 c -0.42,-0.87 -1.51,0 -2.59,-0.44 a 1.29,1.29 0 0 0 0.65,1.3 3.44,3.44 0 0 1 1.94,-0.86"
     class="cls-2" />
</svg>
