<?xml version="1.0" encoding="UTF-8" standalone="no"?>
<svg
   xmlns:dc="http://purl.org/dc/elements/1.1/"
   xmlns:cc="http://creativecommons.org/ns#"
   xmlns:rdf="http://www.w3.org/1999/02/22-rdf-syntax-ns#"
   xmlns:svg="http://www.w3.org/2000/svg"
   xmlns="http://www.w3.org/2000/svg"
   xmlns:sodipodi="http://sodipodi.sourceforge.net/DTD/sodipodi-0.dtd"
   xmlns:inkscape="http://www.inkscape.org/namespaces/inkscape"
   height="32"
   viewBox="0 0 32 32"
   width="32"
   version="1.1"
   id="svg897"
   sodipodi:docname="bank_logo_KB.svg"
   inkscape:version="1.0 (4035a4fb49, 2020-05-01)">
  <metadata
     id="metadata903">
    <rdf:RDF>
      <cc:Work
         rdf:about="">
        <dc:format>image/svg+xml</dc:format>
        <dc:type
           rdf:resource="http://purl.org/dc/dcmitype/StillImage" />
        <dc:title></dc:title>
      </cc:Work>
    </rdf:RDF>
  </metadata>
  <defs
     id="defs901" />
  <sodipodi:namedview
     inkscape:document-rotation="0"
     pagecolor="#ffffff"
     bordercolor="#666666"
     borderopacity="1"
     objecttolerance="10"
     gridtolerance="10"
     guidetolerance="10"
     inkscape:pageopacity="0"
     inkscape:pageshadow="2"
     inkscape:window-width="1920"
     inkscape:window-height="1001"
     id="namedview899"
     showgrid="false"
     fit-margin-top="0"
     fit-margin-left="0"
     fit-margin-right="0"
     fit-margin-bottom="0"
     inkscape:zoom="10.68"
     inkscape:cx="13.205542"
     inkscape:cy="36.49973"
     inkscape:window-x="-9"
     inkscape:window-y="-9"
     inkscape:window-maximized="1"
     inkscape:current-layer="svg897" />
  <g
     style="fill:none;fill-rule:evenodd"
     id="g893"
     transform="matrix(0.43355691,0,0,0.43355691,5.7075965,-1.171612e-4)">
    <path
       id="path889"
       fill="#000000"
       d="m 5.5839127,7.8081151 c 0,1.4509406 1.188897,2.6251419 2.6248728,2.6251419 1.4699151,0 2.6618665,-1.1742013 2.6618665,-2.6251419 0,-1.4512786 -1.1919514,-2.593379 -2.6618665,-2.593379 -1.4359758,0 -2.6248728,1.1421004 -2.6248728,2.593379 M 36.255961,26.537549 c 0,1.451278 1.196703,2.625141 2.666958,2.625141 1.43326,0 2.622157,-1.173863 2.622157,-2.625141 0,-1.41884 -1.188897,-2.593379 -2.622157,-2.593379 -1.470255,0 -2.666958,1.174539 -2.666958,2.593379 M 5.6884461,66.13701 c 0,1.417827 1.1892363,2.591352 2.6615272,2.591352 1.4349576,0 2.6265697,-1.173526 2.6265697,-2.591352 0,-1.451954 -1.1916121,-2.624804 -2.6265697,-2.624804 -1.4722909,0 -2.6615272,1.17285 -2.6615272,2.624804 M 36.645585,66.06943 c 0,1.450603 1.188558,2.625142 2.626231,2.625142 1.471272,0 2.662885,-1.174539 2.662885,-2.625142 0,-1.417826 -1.191613,-2.592703 -2.662885,-2.592703 -1.437673,0 -2.626231,1.174877 -2.626231,2.592703 M 0.29445818,65.481485 V 8.3237498 c 0,-5.0063197 3.36203632,-8.32347948 8.01886062,-8.32347948 4.5186912,0 7.8807272,3.31715978 7.8807272,8.32347948 V 39.043549 L 32.72287,22.391522 c 2.030255,-1.971306 4.411103,-3.076576 6.793309,-2.869781 3.888437,0.346009 6.900219,3.491516 6.549964,7.568612 -0.177503,1.934474 -0.981188,3.560785 -2.309915,4.873187 l -9.772509,9.534849 11.802763,20.111781 c 0.977455,1.693552 1.397964,3.283032 1.397964,4.769114 0,4.042968 -3.114618,7.429059 -7.528436,7.429059 -3.115297,0 -5.812122,-1.589817 -7.530473,-4.560968 l -9.453139,-16.758127 -6.478352,6.321086 v 6.671151 c 0,5.04484 -3.362036,8.326858 -7.8807272,8.326858 -4.6568242,0 -8.01886062,-3.282018 -8.01886062,-8.326858" />
    <path
       id="path891"
       fill="#ed2f24"
       d="m 36.048184,66.188438 c 0,1.727343 1.404752,3.144156 3.153988,3.144156 1.750933,0 3.185891,-1.416813 3.185891,-3.144156 0,-1.729032 -1.434958,-3.110365 -3.185891,-3.110365 -1.749236,0 -3.153988,1.381333 -3.153988,3.110365" />
  </g>
</svg>
