<?xml version="1.0" encoding="UTF-8" standalone="no"?>
<svg
   xmlns:dc="http://purl.org/dc/elements/1.1/"
   xmlns:cc="http://creativecommons.org/ns#"
   xmlns:rdf="http://www.w3.org/1999/02/22-rdf-syntax-ns#"
   xmlns:svg="http://www.w3.org/2000/svg"
   xmlns="http://www.w3.org/2000/svg"
   xmlns:sodipodi="http://sodipodi.sourceforge.net/DTD/sodipodi-0.dtd"
   xmlns:inkscape="http://www.inkscape.org/namespaces/inkscape"
   data-name="Layer 1"
   id="Layer_1"
   viewBox="0 0 32 32"
   version="1.1"
   sodipodi:docname="bank_logo_ING.svg"
   width="32"
   height="32"
   inkscape:version="1.0 (4035a4fb49, 2020-05-01)">
  <metadata
     id="metadata861">
    <rdf:RDF>
      <cc:Work
         rdf:about="">
        <dc:format>image/svg+xml</dc:format>
        <dc:type
           rdf:resource="http://purl.org/dc/dcmitype/StillImage" />
        <dc:title>ING_Leon</dc:title>
      </cc:Work>
    </rdf:RDF>
  </metadata>
  <sodipodi:namedview
     inkscape:document-rotation="0"
     pagecolor="#ffffff"
     bordercolor="#666666"
     borderopacity="1"
     objecttolerance="10"
     gridtolerance="10"
     guidetolerance="10"
     inkscape:pageopacity="0"
     inkscape:pageshadow="2"
     inkscape:window-width="1920"
     inkscape:window-height="1001"
     id="namedview859"
     showgrid="false"
     fit-margin-top="0"
     fit-margin-left="0"
     fit-margin-right="0"
     fit-margin-bottom="0"
     inkscape:zoom="16.537982"
     inkscape:cx="9.2759364"
     inkscape:cy="15.229534"
     inkscape:window-x="-9"
     inkscape:window-y="-9"
     inkscape:window-maximized="1"
     inkscape:current-layer="Layer_1" />
  <defs
     id="defs850">
    <style
       id="style848">.cls-1{fill:#000169;}.cls-2{fill:#ff6800;}</style>
  </defs>
  <title
     id="title852">ING_Leon</title>
  <path
     style="stroke-width:0.263094"
     class="cls-2"
     d="M 10.223688,26.288302 A 3.6964743,3.6964743 0 0 1 9.8816655,24.814975 1.881124,1.881124 0 0 1 10.052677,23.859942 L 9.4291434,23.978334 C 9.260763,24.191442 9.2028823,24.307203 9.2028823,24.417702 l 0.2841418,-0.110499 c 0.057881,0 0.1131305,0.110499 0.1683803,0.22626 -0.05525,0.281512 -0.3946414,0.281512 -0.5104028,0.394642 -0.1683804,0.568284 0.3420225,0.907675 0.3999033,1.360197 z M 32,19.005853 a 9.5845239,9.5845239 0 0 0 -2.838787,-6.748368 c -0.789283,-0.789283 -1.652232,-1.1734 -2.333646,-1.957421 A 4.127949,4.127949 0 0 1 26.001451,9.1687584 2.8308943,2.8308943 0 0 0 25.212168,8.545225 L 25.38581,9.0556279 H 25.32793 A 1.418078,1.418078 0 0 1 24.538646,8.7162363 l 0.22363,-0.2288921 C 24.704396,8.3821066 24.538647,8.3821066 24.420255,8.3821066 23.512579,8.226881 22.683832,8.7162363 21.789312,8.8846166 v 0.1131305 c 0.565653,0.1710113 0.67089,0.8524254 0.986603,1.1918169 h 0.326237 c 0.11313,0 0.284142,0.1105 0.397273,0.1105 a 1.14446,1.14446 0 0 0 -0.113131,-0.3367609 0.21310635,0.21310635 0 0 1 0.339391,0 c 0.284142,0.1710109 0.681414,-0.1131306 0.965556,0.3367609 a 1.78641,1.78641 0 0 0 -0.965556,0.176273 c 0,0.05788 0.173643,0.157856 0.115762,0.263094 -0.281511,-0.115761 -0.626165,0 -0.739295,-0.215737 l -0.05525,0.04209 a 3.1045123,3.1045123 0 0 0 1.362828,0.902413 c 0.739295,0.115762 1.362828,-0.22363 2.078444,-0.05525 2.559907,1.249698 4.377889,4.170044 4.377889,7.087759 0,4.170044 -2.383635,5.814384 -3.867487,5.814384 A 1.6285535,1.6285535 0 0 1 26.11458,23.986226 7.8928279,7.8928279 0 0 0 26.377675,21.7052 c 0,-2.409944 -0.952401,-5.019839 -2.25735,-6.351096 -0.626164,-0.623533 -1.297054,-1.133936 -1.994253,-1.133936 -0.342023,0 -0.684046,0 -0.907676,0.284142 a 1.1286744,1.1286744 0 0 0 -0.397271,0.962925 3.1755477,3.1755477 0 0 1 -1.75747,0.510403 3.4202254,3.4202254 0 0 1 -2.104754,-0.789283 v -0.862949 c -0.165749,-0.05525 -0.731402,-0.397272 -0.447261,-0.655105 a 1.0286985,1.0286985 0 0 1 0.339393,0.205214 c -0.05788,-0.370963 -0.05788,-0.826116 -0.339393,-1.165508 a 0.75508053,0.75508053 0 0 1 -0.452521,-0.11313 0.99186536,0.99186536 0 0 1 -0.344654,-0.681414 c 0.173642,0.284141 0.455154,0.171011 0.626165,0.339391 C 16.059119,11.576071 16.169619,11.291929 15.659216,10.297433 15.546085,9.7896609 15.035683,9.50815 14.69629,9.1661275 14.525279,9.0529969 14.47003,8.8819857 14.262185,8.8819857 c -0.22363,-0.05525 -0.22363,-0.3393916 -0.22363,-0.5025101 a 1.6259225,1.6259225 0 0 1 0.334129,0.1631185 C 14.035924,7.7848826 13.807031,6.9271953 13.070368,6.4694113 L 12.899357,6.5825418 H 11.991681 A 4.0279732,4.0279732 0 0 1 12.502084,6.2984 0.70509262,0.70509262 0 0 0 11.883813,6.072139 1.7206365,1.7206365 0 0 1 11.302374,6.2984 h -0.05525 c 0,-0.1683803 -0.05788,-0.3972723 0.263094,-0.5077719 a 2.9545486,2.9545486 0 0 0 -1.010282,0 c -0.05788,0.2815109 -0.226257,0.4525221 -0.226257,0.6787832 -0.16838,0.1131305 -0.228892,0.2841418 -0.3999034,0.455153 0,-0.3420225 0.1710114,-0.6814141 0.2315234,-1.0234366 -0.2315264,0.057881 -0.5130372,0.228892 -0.6261677,0.228892 A 4.1489965,4.1489965 0 0 0 8.2373264,5.6801285 C 8.5793489,5.9037586 8.4109686,6.301031 8.4662183,6.5851728 L 8.2373264,6.4694113 C 8.1847075,6.2431502 7.8979348,6.072139 7.8426849,5.7906281 A 1.5206848,1.5206848 0 0 0 6.9902596,6.072139 v 0.057881 A 0.75508053,0.75508053 0 0 1 7.5006625,6.4694113 C 7.106021,6.4694113 6.8218792,6.2984 6.4219759,6.2984 c 0,0 0,-0.05525 -0.049988,-0.05525 A 1.2891619,1.2891619 0 0 0 5.95893,6.5825418 2.4388838,2.4388838 0 0 0 5.1117665,7.7138471 c 0.1131305,0 0.2841419,0 0.3420226,0.057881 -0.2288921,0.05525 -0.3420226,0.3393914 -0.5682836,0.3972721 v 0.826116 A 1.6390773,1.6390773 0 0 0 4.3751026,9.6765303 10.089665,10.089665 0 0 0 4.0330801,12.710007 0.44199836,0.44199836 0 0 1 3.7489383,13.046768 v 0.878735 a 5.3145041,5.3145041 0 0 1 0.5104028,-0.423582 v 0.707723 c -0.228892,0 -0.3972723,0.284142 -0.3972723,0.455154 0,0.22363 0.057881,0.452522 0.057881,0.678783 a 0.3578082,0.3578082 0 0 0 0.05525,0.228892 c 0,-0.115762 0.1131305,-0.228892 0.2841417,-0.284142 a 0.48935532,0.48935532 0 0 1 0.3393913,-0.115762 2.2705035,2.2705035 0 0 0 -0.3393917,0.626165 l -0.1710112,0.16838 a 0.55775983,0.55775983 0 0 0 -0.057881,0.171011 17.161639,17.161639 0 0 0 1.0234367,3.293941 c -0.455153,0.731402 -0.965556,2.149481 -1.3154713,3.509677 A 1.4075543,1.4075543 0 0 0 2.7149778,22.604983 1.236543,1.236543 0 0 0 1.830981,23.115384 0.9076752,0.9076752 0 0 0 0.82069911,23.228516 C 0.34976037,23.633682 0.34976037,23.857312 0.34976037,24.18881 a 1.149722,1.149722 0 0 0 -0.34465346,0.789283 2.1258016,2.1258016 0 0 0 0.34465346,1.315472 H 8.8529669 A 1.512792,1.512792 0 0 0 8.5688251,25.785793 C 8.4004448,25.4464 8.5135751,24.99651 8.5135751,24.649225 A 5.4460512,5.4460512 0 0 1 9.079228,23.696823 c 0.05525,-0.171012 0,-0.171012 0.05525,-0.226261 l 0.3999033,-0.06578 c 0.2236301,0 0.3946414,-0.168381 0.6787827,-0.168381 0.171012,0.234153 0.171012,-0.171012 0.457785,-0.286773 0.620901,-0.113131 1.20234,0 1.539101,0.455154 0,0.06578 0.05525,0.06578 0.05525,0.121022 h -0.284146 c -0.318344,-0.121022 -0.689308,-0.289403 -1.086579,-0.121022 0,0.121022 -0.05525,0.121022 -0.05525,0.292034 v 0.286773 c 0.223629,0 0.397271,0.213106 0.618271,0.328867 a 0.86031823,0.86031823 0 0 1 0.636688,-0.328867 0.6235334,0.6235334 0 0 1 0.681414,0.61038 v 0.623532 a 2.0573972,2.0573972 0 0 0 0.789283,0.397273 0.41831988,0.41831988 0 0 1 -0.455153,0.226261 h -0.452522 c -0.05788,-0.05525 -0.171011,-0.05525 -0.171011,-0.226261 a 4.4541858,4.4541858 0 0 0 -0.397273,0.678784 h 6.577361 c -0.1105,-0.223627 -0.226262,-0.394638 -0.281511,-0.507768 a 3.7911883,3.7911883 0 0 1 -0.115761,-1.136568 l 0.626164,-0.83927 c 0.339391,0 0.623533,-0.113131 1.247067,-0.168381 0.115761,-0.171011 0,-0.236784 0.510402,-0.236784 a 2.060028,2.060028 0 0 1 0.789283,0.121022 c 0.05788,0.115762 0.05788,0.115762 0,0.228893 -0.110499,0.1105 -0.336761,-0.113131 -0.507772,-0.05788 -0.11313,0.113131 0.05788,0.168381 0.05788,0.286773 0.11313,0.09735 -0.510403,-0.118392 -0.510403,-0.118392 0,0 -0.115761,0.331498 -0.171011,0.447259 l 0.339392,0.33676 c 0.113131,0.171011 -0.168381,0.342024 -0.168381,0.526189 -0.115761,-0.05788 -0.342022,-0.228893 -0.342022,-0.171012 -0.115761,0.455154 0,0.849795 -0.05525,1.315472 h 0.620903 l 0.05788,-0.962925 c 0.05788,-0.568284 0.736663,-1.578565 1.133936,-1.578565 a 0.91819898,0.91819898 0 0 1 0.557759,0.228891 c 0.105238,0.213107 0.368332,0.328868 0.368332,0.439367 0,0.1105 -0.157856,0.171012 -0.420951,0.171012 -0.107868,0 -0.107868,-0.171012 -0.276248,-0.28151 l -0.342023,0.336761 c 0,0 0.397272,0.342023 0.397272,0.568283 a 0.65773565,0.65773565 0 0 1 -0.226261,0.568283 l -0.342023,-0.681415 c -0.171011,0 -0.452522,0.342023 -0.452522,0.510403 0,0.226262 -0.11313,0.339392 -0.11313,0.678784 h 3.472844 a 2.1652658,2.1652658 0 0 0 1.139198,-0.378855 h 0.676152 a 4.6041495,4.6041495 0 0 0 3.507047,-1.404925 c 1.360197,-1.31547 2.154742,-3.457058 2.154742,-5.524978 m -12.191788,5.125076 -0.565652,0.05788 a 0.49461721,0.49461721 0 0 1 0.228892,0.452522 0.70509262,0.70509262 0 0 1 -0.228892,0.455152 c -0.113131,-0.113131 -0.113131,-0.284141 -0.226262,-0.455152 -0.113131,0 -0.171011,0.284141 -0.171011,0.397271 a 2.7177637,2.7177637 0 0 0 0.397273,1.247067 h 0.510402 a 10.04757,10.04757 0 0 1 -0.171011,-1.360197 2.7256565,2.7256565 0 0 1 0.226261,-0.789283 m -7.416627,0.681414 c 0,-0.22626 -0.168381,-0.28151 -0.397273,-0.28151 -0.107868,0 -0.368331,0.16838 -0.368331,0.28151 0,0.226262 -0.105238,1.473329 -0.105238,1.473329 h 0.365701 c 0.163118,-0.507772 0.505141,-1.189187 0.505141,-1.473329 m -1.19971,-0.05788 c -0.06051,0 0.05788,0.115761 -0.507772,-0.449892 -0.118393,0 -0.286772,0.336761 -0.286772,0.449892 a 4.7567443,4.7567443 0 0 0 0.286772,1.531209 h 0.44726 c 0,-0.507772 0.06051,-1.076056 0.06051,-1.531209 M 26.001451,10.536849 a 0.60248585,0.60248585 0 0 0 -0.513034,-0.344654 c -0.16838,-0.2262609 -0.394641,-0.5104028 -0.623533,-0.5104028 0.171011,0 0.397272,-0.1710113 0.678783,-0.1710113 0.115761,0.2841418 0.342023,0.4551532 0.399904,0.6814141 z M 24.2966,9.3397697 h -0.623533 c -0.1105,-0.1683804 -0.284142,0 -0.397272,0 -0.113131,0 -0.171012,0 -0.38938,-0.1683804 0.331498,0 0.50251,-0.1710112 0.789282,-0.2841418 0.228893,0.1710113 0.455154,0.2288921 0.623534,0.4525222 m -1.360198,6.4668573 c -0.368331,-0.11313 -0.578807,-0.284142 -0.918198,-0.284142 a 1.4470184,1.4470184 0 0 0 -0.678783,0.284142 c -0.171012,-0.226261 0.110499,-0.681414 0.339391,-0.789283 a 0.41831988,0.41831988 0 0 1 0.455153,0 c 0,0.339391 0.381487,0.16838 0.591962,0.284142 a 1.3996615,1.3996615 0 0 1 0.210475,0.510403 m -0.04999,0.820854 c -0.318344,0 -0.370963,-0.04472 -0.58407,-0.04472 a 0.9076752,0.9076752 0 0 0 -0.789282,0.384119 0.47093873,0.47093873 0 0 1 0,-0.478832 1.2181264,1.2181264 0 0 1 0.681414,-0.399903 c 0.378856,0 0.6972,0.284142 0.6972,0.539343 m 1.297054,1.249698 a 3.3623447,3.3623447 0 0 0 -1.51016,-0.457784 2.5257049,2.5257049 0 0 0 -1.107628,0.513034 L 21.45781,17.424663 c 0.342023,-0.05525 0.342023,-0.339393 0.568283,-0.339393 0.171012,0 0.392011,-0.05788 0.549868,-0.05788 0.157856,0 0.263094,-0.107869 0.318344,-0.107869 0.276249,0 0.163118,0.28151 0.331498,0.28151 0.168381,0 0.284142,-0.115762 0.399904,-0.115762 0.284142,0 0.510402,0.457785 0.565652,0.789283 m 0.171012,1.247067 c -0.397273,0 -0.789284,-0.113131 -0.852426,-0.284142 -0.11313,-0.11313 0,-0.342022 -0.284142,-0.342022 -0.113131,0 -0.28151,0.171011 -0.28151,0.171011 -0.105238,0.05788 -0.420951,-0.171011 -0.420951,0 0,0.284142 -0.213106,0.397272 -0.497249,0.397272 a 0.73140204,0.73140204 0 0 1 -0.339391,-0.05525 v -0.568282 c 0.731402,0 0.678784,-0.228893 0.994497,-0.228893 0.213106,0 0.376224,0.11313 0.544604,0.11313 0.284142,0 0.115762,-0.11313 0.399904,-0.11313 0.284142,0 0.394641,0.228893 0.565652,0.281512 0,0.171009 0.171012,0.399901 0.171012,0.626163 m -0.510403,1.218126 c -0.171011,-0.05525 -0.568284,-0.11313 -0.568284,-0.284142 0,-0.22626 -0.11313,-0.28414 -0.389379,-0.28414 a 2.0442424,2.0442424 0 0 0 -0.6972,0.171009 1.4891135,1.4891135 0 0 1 -0.226262,-0.447258 2.6309427,2.6309427 0 0 1 0.762974,-0.16575 c 0.378855,0 0.776128,0 0.776128,0.16575 0,0.220998 0.342023,0.263093 0.342023,0.844531 M 14.035924,11.51819 c 0,0.05788 -0.115762,0.568284 -0.115762,0.568284 l -0.452522,0.11313 0.281511,-1.223388 a 2.0284568,2.0284568 0 0 1 0.286773,0.541974 m 10.88684,10.805282 a 1.0971031,1.0971031 0 0 1 -0.171011,0.736664 l -0.342022,-0.510403 c 0.118392,-0.171011 0.118392,-0.397272 0.284141,-0.681415 0.05788,0 0.228892,0.397273 0.228892,0.455154 m -1.360197,-0.739295 c -0.399903,0 -0.173642,-0.789282 -0.994496,-0.789282 -0.157857,0 -0.263095,0.286773 -0.491987,0.342022 0,-0.05525 0.05788,-0.397272 0.05788,-0.397272 a 0.52618852,0.52618852 0 0 1 0.276248,-0.452522 c 0.420951,0 0.315713,0.168379 0.639319,0.28151 a 1.3154713,1.3154713 0 0 0 0.513034,0.171012 z m -3.530725,-3.201858 c -0.507772,-0.284141 -0.789283,-0.789282 -1.247067,-1.31547 0.455154,0 0.568284,0.457784 0.910306,0.513033 a 1.8679692,1.8679692 0 0 1 0.336761,0.339392 z m -4.82778,-4.170044 c -0.339391,0 -0.510402,-0.16838 -0.681414,-0.484093 a 2.7467041,2.7467041 0 0 1 0,-0.678783 c 0.113131,0.228892 0.113131,0.342022 0.226262,0.455153 0.22626,-0.113131 0.22626,0.165749 0.284141,0.22363 a 1.4391256,1.4391256 0 0 1 0.171011,0.484093 m 9.324061,9.592417 a 0.97607971,0.97607971 0 0 0 -0.173642,0.328869 c 0,-0.263095 -0.342023,-0.441998 -0.568284,-0.902413 l 0.226261,-0.399904 a 0.72087828,0.72087828 0 0 1 0.397273,0.568283 0.30518934,0.30518934 0 0 0 0,0.236786 c 0,0.05525 0.118392,0.05525 0.118392,0.168379 m -1.139198,-1.594351 a 2.4336219,2.4336219 0 0 1 -0.123655,0.570915 c -0.389379,-0.05525 -0.389379,-0.510403 -0.444629,-0.565652 -0.263094,-0.342023 -0.64195,-0.05788 -0.926091,-0.05788 -0.113131,-0.339392 0.05788,-0.339392 0.05788,-0.568284 0.17101,0 0.339391,-0.11313 0.499879,0 0.263093,-0.11313 0.423581,0.171011 0.69983,0.171011 A 3.4886299,3.4886299 0 0 0 23.3784,22.215605 M 20.544875,19.88722 c 0,0.226262 -0.113131,0.397272 -0.05525,0.623534 -0.115761,-0.342023 -0.342023,-0.681415 -0.457784,-1.015544 0,-0.05788 -0.05525,-0.05788 0.06051,-0.113131 0.05525,0 0.281511,0 0.281511,0.05525 a 1.0208057,1.0208057 0 0 1 0.171011,0.44989 m -4.943539,-4.427877 c -0.05788,0.228893 -0.284141,0 -0.339391,0 H 14.74891 c -0.05525,-0.11313 -0.113131,-0.16838 -0.113131,-0.284142 0.228892,-0.05525 0.397272,-0.16838 0.568283,-0.05525 0.113131,0.171012 0.226262,0.339392 0.397272,0.339392 m 1.247067,1.270746 a 0.7656043,0.7656043 0 0 1 -0.94977,-0.05262 l 0.452523,-0.19469 a 2.2573487,2.2573487 0 0 0 0.510402,0.263095 m 2.894038,3.204488 c 0,0.342022 -0.05525,0.739295 -0.05525,1.136567 -0.171012,0 -0.171012,-0.115762 -0.171012,-0.342023 A 6.0906321,6.0906321 0 0 0 19.24519,19.77935 c -0.11313,-0.441998 -0.397272,-0.820854 -0.620902,-1.315471 -0.05788,-0.228892 -0.344653,-0.342023 -0.570915,-0.526188 a 1.0155439,1.0155439 0 0 1 0.789283,0.226259 c 0,0.113132 0.05788,0.171012 0.228892,0.339393 0.397273,0 0.281511,0.513033 0.623533,0.739294 -0.171011,0.147333 -0.22626,0.263094 -0.342022,0.365701 0.171011,0.115762 0.342022,0.171012 0.397272,0.342023 m -2.215254,-1.67328 c 0,0.173642 -0.107868,0.226262 -0.213106,0.342023 a 1.2523286,1.2523286 0 0 1 -0.207844,-0.397273 1.5075301,1.5075301 0 0 1 0.05262,-0.510403 c 0.155225,0.171012 0.368331,0.397273 0.368331,0.565653 m 5.296088,5.132969 c 0,0.02105 -0.105238,0.121024 -0.105238,0.121024 a 1.5364705,1.5364705 0 0 0 -0.762973,-0.178905 c 0,-0.223629 -0.171011,-0.510402 -0.284142,-0.510402 -0.339391,0 -0.284142,0.228892 -0.565653,0.228892 l 0.507775,-0.510403 c 0.05788,-0.115761 0.05788,-0.115761 0.171012,-0.115761 0.171011,0.115761 0.22626,0.173642 0.397272,0.173642 a 0.84453258,0.84453258 0 0 1 -0.05525,0.33676 c 0.168381,0.115762 0.276249,-0.05525 0.381487,0.115762 0.157857,0.05788 0.315713,0.113131 0.315713,0.339391 m -4.564686,-3.917473 c 0,0.105238 -0.16838,0.220999 -0.22626,0.220999 A 1.3417808,1.3417808 0 0 1 17.703462,19.174233 1.1707694,1.1707694 0 0 1 17.869211,18.5507 c 0.05788,0 0.115762,0.113129 0.171012,0.113129 0.05788,0.05788 0,0.228892 0.05788,0.397273 0.16838,0.113131 0.284142,0.318344 0.16838,0.431475 m -4.346321,-5.448682 a 5.4223727,5.4223727 0 0 0 -2.246825,-0.710354 0.80769939,0.80769939 0 0 1 -0.04999,0.394641 7.3666393,7.3666393 0 0 1 1.84166,1.107627 v 0.510403 c -0.568284,-0.565653 -1.191817,-1.133937 -1.89691,-1.315472 -0.05262,0.113131 -0.263094,0.226261 -0.323607,0.452523 A 3.028215,3.028215 0 0 0 9.9290225,13.86236 c -0.1710113,0 -0.2841418,-0.597224 -0.2841418,-0.597224 a 0.93661557,0.93661557 0 0 0 0.5682833,-0.568284 h 0.226261 c 0.171011,0 0.171011,-0.11313 0.171011,-0.284141 0,-0.339392 -0.7392943,-0.339392 -1.0760549,-0.339392 -0.3999033,0 -0.6814142,0 -0.9129371,0.16838 -0.1078686,0 -0.052618,0.171012 -0.052618,0.286773 0,0.05525 0.1683804,0.16838 0.1683804,0.16838 0.1157614,0 0.2288919,-0.11313 0.3420225,-0.11313 -0.05525,0.339392 0.05525,0.510403 0.3972723,0.681414 l -0.047357,0.570915 c -0.6814141,0 -1.1339363,0.263094 -1.6443392,0.497248 A 1.515423,1.515423 0 0 1 7.3875319,13.883408 c -0.6814142,0.22363 -1.8258742,1.131305 -1.8258742,1.131305 v -0.405165 c 0.50251,-0.452522 1.14446,-0.681414 1.6548629,-0.939247 v -0.39201 c -0.226261,-0.115762 -0.4525221,0 -0.6787832,0 a 2.7467041,2.7467041 0 0 0 -1.3154712,0.549867 1.9916235,1.9916235 0 0 0 -0.05525,-0.381487 C 5.7905497,13.10728 6.5377374,12.823138 7.2717704,12.936268 V 12.710007 C 7.2138897,12.596877 7.2138897,12.425865 7.1033901,12.425865 6.7613676,12.086474 6.419345,11.576071 6.419345,11.236679 l 0.228892,-0.107868 c -0.1131305,-0.323606 -0.228892,-1.1681389 0,-1.4522807 A 1.8179813,1.8179813 0 0 1 5.9010493,8.9951162 3.4965227,3.4965227 0 0 1 5.6169075,8.22425 C 5.7879188,7.8848584 5.9010493,7.7717278 6.0615368,7.4349672 A 0.35254631,0.35254631 0 0 0 6.371988,7.2586941 C 6.650868,7.2008133 6.8218792,6.9193025 7.1612708,7.0903137 a 1.9837307,1.9837307 0 0 1 0.6261644,0.1683804 0.31045123,0.31045123 0 0 0 0.1131306,0.2815108 c 0.3393915,0 0.3393915,0.3367607 0.5130337,0.6209025 a 1.4259708,1.4259708 0 0 0 0.4525221,0.05525 c 0.3393917,0.1052375 0.6235334,0.1052375 0.736664,0.263094 A 2.2178846,2.2178846 0 0 1 11.020864,8.2163572 5.0987668,5.0987668 0 0 0 11.249756,7.5402049 c 0.05525,0.1657494 0.05525,0 0.16838,0 0.207844,-0.1683803 0.468308,-0.4498912 0.860318,-0.3393916 0.226262,0.1710113 0.623533,0.057881 0.849795,0.3393916 0.171011,0.2236301 0.284141,0.5630218 0.455153,0.8313779 -0.171012,0.3341297 0,0.7892827 -0.342023,0.9550321 l -0.339392,0.3420226 c -0.11313,0 -0.11313,0.1131306 -0.284142,0.1131306 a 1.8232433,1.8232433 0 0 1 -0.113129,1.3391499 c 0.113129,-0.04736 0.284141,-0.04736 0.284141,-0.210476 0.05788,0.05788 0,0.163119 0,0.210476 v 0.163118 a 1.1944479,1.1944479 0 0 1 -0.397272,0.789283 c -0.113131,0.339392 -0.397273,0.789283 -0.765605,0.849795 v 0.123654 a 4.9672197,4.9672197 0 0 1 2.296814,0.620902 z m 2.304707,3.54388 -0.284143,0.11313 A 1.6496011,1.6496011 0 0 1 14.74891,17.303634 c 0.22626,0 0.513033,-0.286774 0.513033,-0.286774 a 2.1047541,2.1047541 0 0 0 0.962926,0.570915 m -1.578566,-1.276007 c -0.318344,0 -0.715617,0.171011 -0.886628,-0.171012 a 1.8863858,1.8863858 0 0 0 0.342022,-0.339391 z m 4.604149,5.261886 c 0,0.284141 -0.339391,0.626164 -0.455153,0.849793 0.115762,-0.28151 0.115762,-0.849793 0,-0.849793 -0.11313,-0.05525 -0.339392,0 -0.339392,-0.113131 0,-0.171012 0.05788,-0.394641 0.05788,-0.510403 0,-0.226261 -0.171011,-0.339392 -0.171011,-0.452522 0,-0.342023 0.397273,-0.397273 0.510402,-0.623533 a 2.9282391,2.9282391 0 0 1 0.05788,0.736663 c 0,0.113131 0.17101,0.455154 0,0.736664 0,0.171012 0.339391,0.05788 0.339391,0.226262 M 17.934978,20.95012 c 0,0.339391 -0.223631,0.623534 -0.281511,0.965555 A 1.1260435,1.1260435 0 0 0 17.37459,21.065882 c 0,-0.115763 0.160487,-0.115763 0.05262,-0.286774 0,0 -0.313082,-0.16838 -0.313082,-0.397271 0,-0.228892 0.207844,-0.397274 0.313082,-0.565654 0,-0.05788 0.226261,0.113131 0.226261,0.455154 a 0.82611598,0.82611598 0 0 1 -0.05788,0.339391 c -0.06051,0.168381 0.339392,0.168381 0.339392,0.339392 m -4.638352,-3.999033 c -0.284141,0.05525 -0.510403,-0.226261 -0.789283,-0.339391 -0.11313,-0.310452 -0.11313,-0.652474 -0.226261,-0.820855 0.226261,0.168381 0.736664,0.168381 0.623533,0.681415 0,0.13944 0.226262,0.263092 0.397273,0.478831 m 1.578565,1.578564 a 1.4654351,1.4654351 0 0 1 -0.828748,-0.16838 1.9390047,1.9390047 0 0 1 -0.626165,-0.455152 2.0310877,2.0310877 0 0 1 0.626165,-0.226261 c 0.223629,0.226261 0.431474,0.623534 0.828746,0.849793 M 5.409063,9.826494 5.0144217,9.9396246 5.0696715,9.6554828 A 2.5283359,2.5283359 0 0 1 5.409063,9.1450799 Z m 7.221938,7.853364 c -0.226262,0.05525 -0.623534,0.171012 -0.731402,-0.11313 -0.313083,-0.513034 -0.155227,-0.965557 0,-1.331259 a 7.7586498,7.7586498 0 0 1 0.220999,0.933987 c 0.05788,0.22363 0.397272,0.342022 0.510403,0.510401 M 11.034018,14.5885 c -0.05788,0.339392 -0.16838,0.849795 -0.510403,1.078687 a 0.84979447,0.84979447 0 0 0 -0.22626,-0.513034 c -0.05788,0 0,0.171011 -0.05788,0.171011 a 5.0698264,5.0698264 0 0 0 -0.128915,0.589332 0.63668811,0.63668811 0 0 1 -0.5682841,0.05525 v -0.168381 a 1.2339121,1.2339121 0 0 1 -0.057883,-0.455153 l -0.057881,-0.05525 c -0.1683801,0.05525 -0.1683801,0.16838 -0.1683801,0.284142 A 0.83400881,0.83400881 0 0 0 9.0871208,15.969746 0.78928279,0.78928279 0 0 1 8.5767179,15.801365 v -0.510403 c 0,-0.115762 0,-0.115762 -0.05525,-0.115762 l -0.2867725,0.284142 c -0.226261,-0.16838 -0.2841418,-0.623533 -0.2841418,-0.905044 0.9103062,-0.510403 2.0442425,-0.342023 2.7282874,-0.05788 0.1105,0.05788 0.223631,0.05788 0.33676,0.113131 m 2.894037,4.564686 h -0.171011 c -0.623533,0.205213 -1.133936,-0.168381 -1.644339,-0.510404 a 2.9782271,2.9782271 0 0 1 1.020806,-0.17101 l 0.171011,0.342022 a 3.4675824,3.4675824 0 0 1 0.623533,0.339392 M 5.4906222,10.631563 5.2064805,10.976216 c 0.057881,0.541974 -0.1683803,0.939247 -0.1683803,1.449649 L 4.7539583,11.51819 a 2.2047299,2.2047299 0 0 1 0.2841419,-0.712985 z m 5.7880738,7.295604 c -0.284142,-0.171011 -0.789282,-0.226261 -0.681414,-0.568285 a 1.0234367,1.0234367 0 0 1 0.397272,-0.449889 2.9124535,2.9124535 0 0 0 0.284142,1.018174 m 5.206636,5.764396 h -0.05788 c -0.113131,-0.171012 -0.171011,-0.292036 -0.284142,-0.292036 0.171011,-0.623533 -0.168381,-1.133936 -0.281511,-1.644338 v -0.171012 c 0.171011,0.284141 0.623534,0.568284 0.565653,0.849794 a 10.873685,10.873685 0 0 1 0.05788,1.257592 m -1.315471,-2.104755 c -0.284143,0 -0.510404,0 -0.681414,-0.284142 -0.05525,0 -0.152595,-0.16838 -0.205215,-0.05525 -0.28151,0.22626 -0.568283,-0.168381 -0.907675,-0.113131 a 1.1207815,1.1207815 0 0 1 -0.589331,0.331498 v -0.05525 a 0.52618852,0.52618852 0 0 1 0.339391,-0.455154 c 0.342023,0.115762 0.623534,-0.623533 0.965557,-0.22626 a 1.3365188,1.3365188 0 0 0 0.431474,0.05525 c 0.397272,0.171011 0.510403,0.510404 0.681414,0.789284 m -5.151385,-4.556789 c 0,0.397272 -0.05525,0.910306 -0.4525224,1.081317 L 9.4870241,17.532526 a 2.2494559,2.2494559 0 0 0 0.5656529,-0.526189 m 1.883754,2.475716 a 1.1339363,1.1339363 0 0 1 -0.634057,0.221 5.4670987,5.4670987 0 0 1 -0.907674,-1.052377 l 0.907674,0.171011 a 6.3142623,6.3142623 0 0 1 0.634057,0.657736 m 3.380762,3.228166 C 15.090932,22.536578 14.74891,22.536578 14.635779,22.252437 a 2.4073124,2.4073124 0 0 0 -0.657736,-0.05525 3.3360353,3.3360353 0 0 1 -0.739295,0.05525 c -0.05788,0 0,-0.05525 -0.113131,-0.113131 -0.339391,0.113131 -0.681414,0.113131 -1.020805,0.455153 l 0.284142,-0.681414 a 3.6333317,3.6333317 0 0 0 0.510403,-0.113131 2.0889685,2.0889685 0 0 1 0.568283,-0.05788 v 0.05788 c 0.623534,0 1.33915,-0.05788 1.794303,0.452523 z M 8.8634907,17.927167 C 8.5240992,17.587775 8.2373264,17.303634 8.2373264,16.961611 a 0.83663975,0.83663975 0 0 1 0.5104029,0.113131 c 0,0.28414 0.1157614,0.513033 0.1157614,0.852425 M 7.7848042,16.311768 7.613793,17.01686 A 3.3991778,3.3991778 0 0 1 7.2165206,15.964484 Z m 8.1138268,7.548174 a 4.4883881,4.4883881 0 0 0 -0.228891,0.673521 c -0.113131,-0.342021 -0.226262,-0.8419 -0.623534,-0.8419 a 0.67089037,0.67089037 0 0 0 -0.339392,-0.460415 l -0.434105,-0.05788 c 0.05788,0.22626 0.376224,0.22626 0.157856,0.526188 0.218368,0.16838 0.38938,0.16838 0.50251,0.441998 0.113131,0.173643 0,0.399903 0.05525,0.510404 l -0.339393,0.17101 c 0,-0.281511 0.05788,-0.83664 -0.318344,-0.955032 -0.339391,0.118392 -0.397272,-0.339391 -0.626164,-0.460415 -0.1105,0 -0.1105,-0.28151 -0.281511,-0.16838 -0.284141,0.16838 -0.623534,0 -0.907675,0.16838 l 0.284141,-0.455153 c 0.226262,-0.16838 0.452523,-0.11313 0.681416,-0.16838 l 0.452521,-0.05525 c 0.449892,0 0.828747,0.22363 1.283901,0.397273 a 0.54460512,0.54460512 0 0 1 0.339391,0.526188 c 0.113131,0.05525 0.342023,0.05525 0.342023,0.22363 m -4.472603,-2.615157 h -0.11313 a 1.7469459,1.7469459 0 0 1 -0.568285,-0.284142 1.3154713,1.3154713 0 0 1 -0.05261,-0.339391 h 0.44726 z M 7.0586641,17.206289 a 1.9442666,1.9442666 0 0 1 -0.8945206,-0.72351 1.8706002,1.8706002 0 0 1 -0.1552255,-0.681414 0.4814625,0.4814625 0 0 1 0.4183199,0.28151 v 0.05788 c 0.2841418,0.342023 0.5682835,0.594592 0.6261642,1.052378 m 2.7203947,1.98373 c -0.052618,0.318345 -0.2236301,0.423582 -0.5077719,0.820855 -0.1710112,0.115762 -0.5261885,0.171011 -0.8497945,0.342022 0.05525,-0.171011 0.2209992,-0.22626 0.3367607,-0.397272 a 3.714891,3.714891 0 0 0 0.3972723,-0.61301 1.052377,1.052377 0 0 1 0.6235334,-0.152594 m 4.1516272,5.469729 -0.171011,0.171012 c -0.168381,-0.171012 -0.05788,-0.623534 -0.339391,-0.681414 -0.284142,0 -0.510404,-0.263094 -0.623534,-0.328868 l 0.226261,-0.113131 a 0.27887992,0.27887992 0 0 1 0.226261,0 c 0.113131,0.113131 0.228893,0.16838 0.228893,0.286773 0.113129,0.155226 0.28151,0 0.397271,0.155226 a 0.84190163,0.84190163 0 0 1 0.05525,0.510402 M 8.7477293,18.72171 C 8.5793489,19.061103 8.4109686,19.379446 8.068946,19.492578 a 1.970576,1.970576 0 0 1 -0.7892828,0 c 0.1710114,-0.113132 0.3393916,-0.165749 0.5682837,-0.318345 l 0.452522,-0.452523 z m 1.1339362,2.578325 A 0.72350922,0.72350922 0 0 1 9.2028823,21.415796 L 8.8634907,20.960644 H 9.7159161 Z M 5.7905497,17.01686 C 5.5064079,17.303634 5.2222662,17.414132 5.1091356,17.756156 A 1.0813174,1.0813174 0 0 0 4.998636,17.303634 0.73403299,0.73403299 0 0 1 5.2801469,16.908993 c 0.1710112,0.05261 0.2815108,0.05261 0.5104028,0.107867 m 0.6314262,0.855056 A 1.2049717,1.2049717 0 0 1 6.0641677,18.6612 1.9074334,1.9074334 0 0 1 5.8484304,18.832211 c 0,-0.342024 0.1631185,-0.623534 0.1631185,-0.907676 0.1552256,-0.05525 0.3104512,-0.171011 0.410427,-0.05525 m 0.7892828,0.678782 -0.226261,0.828747 c -0.2841418,0.218368 -0.6682595,0.113132 -0.9787107,0.113132 0.4104271,-0.113132 0.7524496,-0.599856 0.9787107,-0.941879 0.057881,-0.05788 0.1157615,0 0.226261,0 m 0.2841418,2.8651 c 0,0.168382 -0.05525,0.849795 -0.05525,0.849795 C 7.3270202,21.865688 7.0428784,21.473677 6.7008559,21.473677 A 1.4470184,1.4470184 0 0 1 6.3167382,20.963273 c -0.1552255,-0.171011 -0.3104512,0 -0.5261885,-0.171011 a 1.1707694,1.1707694 0 0 0 -0.7366639,0.171011 v -0.171011 l 0.3972723,-0.452521 c 0.3972723,0.05525 0.870842,0 0.9708178,0.284141 a 2.1310635,2.1310635 0 0 1 0.6261644,0.455153 v 0.168381 c 0.1104996,0.05525 0.3393916,0.11313 0.4525222,0.171011 M 7.2165206,23.173266 6.8218792,23.52055 c -0.1157615,-0.121024 0,-0.402534 -0.1710112,-0.576176 0,-0.113131 0.1131305,-0.168381 0.05525,-0.223631 -0.05525,-0.11313 -0.6945688,-0.342022 -0.6945688,-0.342022 A 7.0404024,7.0404024 0 0 1 5.2801469,21.813069 C 5.0538858,21.755189 4.8828745,21.868318 4.5987328,21.9262 v -0.113131 c 0.1131305,-0.228892 0.1131305,-0.526188 0.455153,-0.526188 0.1683804,0 0.3972723,0 0.5077719,0.171011 0.228892,0 0.3420226,0.226261 0.50251,0.284141 a 2.8940369,2.8940369 0 0 0 0.64195,0.513035 0.34991537,0.34991537 0 0 0 0.1710114,0.342022 c 0.3393915,0 0.2288919,0.336761 0.3393915,0.565652 M 6.371988,23.967811 6.2193934,24.52294 5.8484304,23.510027 C 5.3932774,23.107493 4.8828745,23.049611 4.5987328,22.82072 c -0.2262611,-0.05525 -0.2262611,0.113131 -0.3393917,0 A 0.57091454,0.57091454 0 0 1 4.4303524,22.368197 H 4.769744 l 0.3393916,0.171011 c 0.1710113,0.171011 0.5682836,0.171011 0.5682836,0.510403 0,0.05788 -0.057881,0.113131 0.1131305,0.339392 l 0.5261885,0.121024 z M 4.8249937,24.52294 c 0,0.452522 -0.7366638,1.076055 -0.7366638,1.076055 0,-0.284141 0.1710112,-0.623533 0.1710112,-0.965555 A 0.78928279,0.78928279 0 0 0 3.804188,24.407178 C 3.6358077,24.52294 3.6358077,24.63344 3.5779269,24.804451 3.4069157,25.146473 3.0675241,25.485865 3.0122743,25.825257 a 0.0552498,0.0552498 0 0 1 -0.057881,-0.05525 c 0,-0.568283 0.057881,-1.531207 0.3972725,-1.920587 0.2841417,-0.339392 0.5104028,-0.339392 0.8497943,-0.394643 l 0.2841419,0.05525 -0.2262611,0.339392 c 0.2262611,0.118392 0.5656526,0.331499 0.5656526,0.673521 M 2.8386321,24.180918 A 1.1681386,1.1681386 0 0 1 2.6728827,24.804451 C 2.6150017,24.578189 2.4545144,24.296679 2.1808964,24.296679 1.9572663,24.74657 1.8993856,24.917581 2.1230154,25.612149 A 1.5364705,1.5364705 0 0 1 1.6152434,25.938387 2.157373,2.157373 0 0 1 1.499482,25.088592 3.5254631,3.5254631 0 0 1 1.6704933,23.967811 C 1.8415045,23.794169 1.957266,23.510027 2.1230154,23.389003 h 0.6024859 c -0.2630943,0 -0.2630943,0.236786 -0.2630943,0.405166 0.1604875,0.05525 0.3841176,0.11576 0.3841176,0.386748 M 1.3968752,24.80445 c -0.057881,0 -0.228892,-0.171011 -0.3972723,-0.171011 -0.1604875,0.342022 0,0.568283 0,0.965555 a 1.1970789,1.1970789 0 0 1 -0.0578807,0.339392 c -0.10260676,0 -0.30782028,-0.226261 -0.35780819,-0.452522 V 24.588713 L 1.0574839,23.978334 a 0.69456885,0.69456885 0 0 1 0.3393916,0.836641 M 13.004595,9.1661275 A 1.1707694,1.1707694 0 0 0 12.891464,8.1137504 C 12.786226,7.8848584 12.502084,7.7848826 12.215312,7.5480977 l -0.386749,0.2367849 a 0.65773565,0.65773565 0 0 0 -0.310451,0.6077478 2.2810273,2.2810273 0 0 1 0.926091,0.9550321 h 0.171012 c 0.171011,-0.1683803 0.284142,0 0.397273,-0.1683803 m -1.883756,0.3393915 c 0,-0.1710112 -0.05525,-0.1710112 -0.110499,-0.1710112 -0.284142,0 -0.284142,-0.4525222 -0.510403,-0.3393916 -0.11313,0 -0.226261,-0.1131306 -0.394642,0 0,0.057881 0,0.057881 0.1105,0.057881 0.284142,0 0.171012,0.3946413 0.397272,0.452522 z m 0.862949,0.6814143 c 0,0 0.113131,0 0,-0.05525 L 10.791971,9.9738269 C 10.681472,10.144838 10.3947,10.144838 10.3947,10.310588 h -0.113131 a 6.0038111,6.0038111 0 0 1 0.113131,1.447018 0.50251004,0.50251004 0 0 1 0.455152,0.499879 3.5675582,3.5675582 0 0 1 0.66826,0.342023 c 0.105238,-0.05525 0.155225,-0.226261 0.210475,-0.397273 -0.210475,-0.284141 -0.710354,-0.11313 -0.710354,-0.623533 l -0.336761,-0.1105 a 3.9069498,3.9069498 0 0 0 -0.06051,-0.886627 l 0.06051,-0.0421 c 0,0.0421 0.05262,0.09998 0.16838,0.215737 0.223631,0 0.452522,0.05788 0.66826,-0.115762 0.105238,-0.05788 0.105238,-0.334129 0.210475,-0.334129 0.105238,0 0.207844,0 0.263094,-0.1105 M 9.2028823,9.003009 C 9.0897517,8.8898785 8.7477293,9.0608897 8.5793489,9.1187705 A 0.47093873,0.47093873 0 0 0 8.1847075,9.5134119 H 8.7950862 A 1.8127195,1.8127195 0 0 1 9.1923585,9.003009 M 7.9426607,8.3873684 C 7.887411,7.8348705 7.2638776,7.7796207 6.9797358,7.5559905 H 6.7534747 C 6.3114764,7.7217399 6.2088696,8.1768931 6.1562507,8.5504869 6.3114764,9.0608897 6.6403442,8.7214981 6.8666053,9.0608897 A 6.4352856,6.4352856 0 0 1 7.9426607,8.3873684 M 11.29185,13.565064 v -0.286773 h -0.568283 l -0.05261,0.05525 z M 8.7372055,10.305326 c 0,-0.1105 -0.1157615,-0.22363 -0.2815109,-0.3367611 H 7.0954972 a 0.32360594,0.32360594 0 0 0 0.3393917,0.3367611 c 0,0.234154 0.1683803,0.276249 0.226261,0.334129 0.1710113,0.115762 0.2262611,0.115762 0.3972724,0 0.1683803,0.115762 0.226261,-0.09998 0.2841417,0 a 3.1913334,3.1913334 0 0 1 -0.057881,0.773497 c -0.057881,0.397273 -0.3972723,0.339392 -0.6814141,0.510403 0,0.171012 -0.1683803,0.455153 0,0.626165 a 2.5888476,2.5888476 0 0 1 0.5814386,-0.292035 c 0,-0.16838 0.1683803,-0.339391 0.3946414,-0.452522 0,-0.510403 0.1683804,-0.997127 0.1683804,-1.504899 m -0.4525222,2.978227 c -0.1104996,-0.228892 -0.3972723,0 -0.6814141,-0.115762 a 0.3393916,0.3393916 0 0 0 0.1710112,0.342023 0.90504425,0.90504425 0 0 1 0.5104029,-0.226261"
     id="path856" />
</svg>
